<?xml version="1.0" encoding="utf-8"?>
<!-- Generator: Adobe Illustrator 23.0.1, SVG Export Plug-In . SVG Version: 6.00 Build 0)  -->
<svg version="1.1" id="Tekengebied_1_1_" xmlns="http://www.w3.org/2000/svg" xmlns:xlink="http://www.w3.org/1999/xlink" x="0px"
	 y="0px" viewBox="0 0 1366 768" style="enable-background:new 0 0 1366 768;" xml:space="preserve">
<style type="text/css">
	.st0{fill:#FEBCBC;}
	.st1{display:none;fill:#FEFEFE;}
	.st2{fill:#DF8E8E;}
	.st3{fill:#FEFEFE;}
	.st4{fill:#DF8C8C;}
	.st5{fill:#FEDCDC;}
	.st6{fill:#FED5D5;}
</style>
<g id="Laag_2_xA0_Afbeelding_1_">
	<g>
		<g>
			<path class="st0" d="M1,243C1,162.3,1,81.7,1,1c455.3,0,910.7,0,1366,0c0,93,0,186,0,279c-3.9-1-3.9-1-6.2,0
				c-2.6-2.6-5.8,0.3-8.7-0.9c-0.8-0.4-2.1,0.5-3.2,0.5c-2.1,0-3.3,2.1-5,2.3c-1.8,0.2-3,0.6-4.3,1.9c-0.7,0.7-1.9,1.1-2.9,1.2
				c-2.9,0.3-4.4,2.1-5.6,4.5c-0.2,0.4-0.1,1.2-0.4,1.3c-2.5,1.1-3.8,3.5-4.3,5.6c-0.7,2.6-3.3,4.4-2.7,7.4c0.1,0.2-0.4,0.6-0.5,0.7
				c0.3,0.8,0.6,1.2,0.8,1.6c0.2,0.9,0.4,1.8,0.8,3c-1.7,1.3-3.7,2.9-5.9,4.6c0.2,1.4,0.5,2.8,0.8,4.4c-0.5,0.3-1,0.8-1.6,1
				c-0.6,0.2-1.3,0.2-1.8,0.3c0.7,1.6,1.3,3,1.9,4.3c-1,0.3-1.5,0.5-1.8,0.6c-0.9,2.4,0.4,4.7-1,6.9c-1.3,2.1,0.6,4.9-1.1,7
				c-1.6,2,2.6,4.1-0.1,6.1c-0.3,2.3-0.6,4.7-0.9,7.4c0.1,0.1,0.4,0.6,0.7,0.9c-0.3,1.5-0.9,2.6-0.9,3.9c-0.3,6.9,0.6,13.8-1,20.5
				c0,0.7,0,1.3,0,2c-0.1,3.2-0.1,6.4-0.8,9.6c-0.8,3.7-0.1,7.6-0.2,11.5c-0.2,3.9-0.6,7.7-1,11.6c-0.2,2,0,4-0.8,6.2
				c-0.8,2.2-0.9,5.1,1.1,7.6c-0.9,0.7-1.7,1.3-2,1.5c-0.9,4.4,0.8,8.4-1.2,12.2c-0.3,0.6-0.4,2,0.1,2.4c1.3,1.1,0.8,2.4,0.9,3.7
				c0.1,2.4-0.4,4.9,1,7.1c0,0-0.6,0.5-0.9,0.8c-0.6,0-1.2,0-1.6,0c-0.5,3-1.4,5.7-1.3,8.4c0.1,3-1,5.5-2.3,8c0.5,0.5,0.8,0.9,1,1.1
				c-0.9,2.6-1.7,5-2.8,8.5c0,0.5,0,2,0,3.5c0,0.1-0.1,0.3-0.2,0.4c-0.6,0.2-1.2,0.4-1.8,0.6c0,1.7,0.4,3.5-0.1,5
				c-0.5,1.6-1.9,2.9-2.9,4.3c-0.2,0.2,0,0.7-0.1,0.9c-1.9,3.6-4.4,6.6-7.2,9.2c-5.9,0.8-11.6,2.5-17.2,0.2c-0.4,0.4-0.7,0.7-1.1,1
				c-0.6-0.6-1.2-1.2-2-2c-1.3,0-2.7,0-4.1,0c-0.7-2.9-3.2-2.6-5.1-3.3c-1.8-6.3-5.2-12.3-4.2-19.4c-0.7-0.6-1.5-1.2-1.7-1.4
				c-0.7-2.8-1.2-4.9-1.7-7c-0.7,0-1.2,0-1.7,0c-0.3-0.7-0.9-1.4-0.9-2.1c-0.1-3-0.1-6,0-9c0-2.9-1.3-5.6-1.1-8.5
				c0.2-3.2,0.9-6.5-0.9-9.5c0.7-4.6-1.3-9-1-13.5c0.1-2.6,0-5.3,0-7.9c-1.2-1.6-2.3-3.1-3.5-4.8c-2.6,0.5-5.1,1-7.5,1.5
				c0.2,2.4-1.8,2.5-2.7,3.2c-0.5,1.6-1.1,2.9-1.2,4.3c-0.4,3.8-0.7,7.7-1.1,11.5c-0.1,0.6-0.4,1.2-0.5,1.8
				c-0.1,2.6-1.1,5.5-0.1,7.6c1.1,2.4-0.1,3.9-0.3,5.1c0.4,1.6,0.7,2.5,0.9,3.3c-0.7,0.6-1.9,1.3-1.9,1.8c0.2,2.4-1.3,4.1-2.2,6.3
				c1.5,1.3,1,3.1,1.1,4.9c-2.3,0.7-0.4,2.8-1.4,4.1c-1,1.4-1.1,3.5-1.5,5.4c0.3,0.3,0.6,0.7,0.9,0.9c-0.3,1.6-0.7,3.1-0.9,4.7
				c-0.2,1.6,0,3.1-0.9,4.7c-0.6,1,0.8,3.1,0.2,4.2c-1,1.9,0.7,3,0.8,4.3c-0.5,0.6-0.8,1.1-1.2,1.5c0.5,1,0.8,1.8,1.3,2.8
				c-0.8,0.3-1.4,0.5-2.2,0.8c-0.1,3.3,0.3,6.7-1,9.9c-0.4,1-0.9,2-1,3.1c-0.2,1.9,0.1,3.8-1,5.6c-0.9,1.6-1.2,3.5-1.8,5.2
				c-0.3,0.9-0.2,2.1-0.8,2.7c-2.9,2.8-2.4,7.8-6.5,9.7c-0.5,3.1-3.1,4.8-5.2,7.1c0,0.9,0,2,0,3.1c-1,0.1-1.8,0.2-2.9,0.3
				c0,1.3,0,2.5,0,3.7c-1.1,0.1-1.9,0.2-1.9,0.2c-1.5,1.7-2.5,2.9-3.4,4c-0.8,0-1.5,0-1.9,0c-1.2,1.3-2.2,2.5-3.2,3.7
				c-0.3-0.2-0.8-0.5-1.1-0.7c-1.9,0.5-3.6,0.8-5.7,1.3c-0.3,0.4-0.8,1-0.9,1.2c-3.9,0.7-7.3,1.3-10.8,2c-0.4-0.4-1-1-1.6-1.6
				c-1.6,4-5.1,2.8-8.2,3c-0.3-0.7-0.5-1.3-0.8-2.3c-2.7,0.3-5.5,0.7-7.8,1c-1.3-1.5-2.4-2.8-3.5-4.1c-0.8,0.6-1.3,0.9-1.6,1.1
				c-2.1-0.7-4-1.3-6.6-2.2c-1.8-1.5-4.3-3.7-6.8-5.7c-0.8-0.7-2-1.8-2.7-1.7c-3.3,0.8-3.2-3.2-5.5-3.6c0.4-3.2-1.8-3.7-3.9-3.8
				c-0.2-0.8-0.3-1.3-0.5-1.7c-0.9-0.1-1.7-0.2-2.5-0.2c0.1-0.2,0.2-0.3,0.4-0.5c-1-0.6-1.9-1.3-2.2-1.5c-0.7-3.5-1.2-6.1-1.7-8.7
				c-0.5-0.1-0.9-0.2-1.7-0.5c-0.3-1.3,0.6-3.2-1-4.3c1.5-1.3,0.9-2.9,0.8-4.3c-0.8-0.2-1.2-0.3-1.5-0.3c-0.4-2.6-0.7-5.1-1.1-7.6
				c0.6-0.3,1.3-0.5,2.6-1.1c-1.7-1.2-2.7-2-3.6-2.7c0-1.5,0-3,0-4.3c0.7-0.2,1.3-0.4,2.4-0.8c-1.1-0.3-1.6-0.4-2.3-0.6
				c-0.4-1.7-2.1-3.3-1-5.6c0.6-0.2,1.2-0.4,1.8-0.6c-0.7-0.8-1.4-1.5-2.1-2.2c0-1.3,0.3-2.8-0.1-4s2-1.6,0.4-2.9
				c-0.4-0.3,0.4-2.1,0.6-3.2c-0.7-0.3-1.3-0.5-2.1-0.8c0.9-0.4,1.5-0.7,2.2-1c-0.6-2.3-1.3-4.5-1.9-6.8c1.8-2.3,1-4.6,0.1-6.4
				c0.7-3.1,1.3-5.6,1.9-8c-1-0.4-1.6-0.5-2-0.7c0.7-1.3,1.3-2.6,2-3.9c-0.8-0.9-1.5-1.7-2.2-2.4c0.4-1.2,1.3-2.6,0.9-3.3
				c-1.5-2.8-0.6-5.8-0.9-8.2c-0.8-1.6-1.5-2.8-1.9-3.7c0.4-1.4,0.8-2.4,1.1-3.3c-1.9-2.5-4.7-4-5.8-7c-1.1,0-2.2,0-3.3,0
				c-0.1-2-0.3-3.5-2.8-3.9c-2.1-0.4-4.3-0.8-5.9-2.8c-0.6-0.7-1.9-0.8-2.6-1.1c-0.9,0.5-1.6,0.8-2.5,1.3c-0.3-1.3-0.5-2.3-0.8-3.8
				c-1.3,1-2.2,1.7-3.1,2.4c-0.4-0.4-0.6-0.6-1.1-1.1c-2.4,2.1-5.4,0.9-8.1,1.2c-0.3-0.9-0.5-1.5-0.6-1.9c-2.6,0.5-5,1.1-7.4,1.6
				c-0.2-0.5-0.5-1.1-0.8-1.9c-1,0.6-1.7,0.9-2.4,1.3c-1-0.5-2-0.9-3-1.4c-0.1-0.8-0.2-1.5-0.3-2.2c-2-0.6-4-1.1-6-1.7
				c0-1.3,0-2.4,0-4c-1.3,0.5-2.2,0.9-3.2,1.3c-0.6-0.5-1.2-1-1.6-1.3c0.5-0.9,0.8-1.4,1-1.8c-1.9-1.6-3.5-3-5.1-4.4
				c0-1.2,0-2.2,0-3c-3.4-3.5-3.4-9.1-7.8-11.6c-0.9,0-1.5,0-2.2,0c0.3-1.9-0.5-3.8,0.9-5.7c1.1-1.4-0.9-3.4-0.8-5
				c0.5-6.9-1.1-13.7-1.1-20.6c0-7.7,0.1-15.3,0-23c0-2.2,0.4-4.4-0.8-6.7c-0.6-1,0.1-2.8,0.5-4.2c0.6-2.2,0.9-4.4-0.5-6.5
				c0.7-0.7,1.4-1.5,2-2.1c-0.4-2-1.1-3.5-1-5c0.2-6.1,0-12.2-2.5-18.1c-0.4-0.1-1-0.3-1.7-0.6c0-0.8,0-1.6,0-2.6
				c-3.7-0.9-4.8-3.8-5.1-6.9c-2.5,0.3-4.8,1.2-6.9,0.8c-1.9-0.4-3.3-1-5.3-0.1c-1.8,0.8-3.9,1.1-5.4,2.6c-0.5,0.5-1.3,0.7-1.5,0.8
				c-1.8,2.2-1.2,5.1-3.6,6.3c0,1.8,0,3.5,0,5c-1.7,1.9-2.1,4-2,6.3c0.1,1.3,0.2,2.7-0.3,3.9c-1.4,3.4-0.9,6.6,0.2,9.5
				c-1,2.3-1.9,4.5-2,6.9c-0.1,3.4,0.7,6.8-0.9,10.1c-0.3,0.7,0.2,1.9,0.5,2.7c0.4,1.1,1.1,2.2,1.7,3.4c-0.4,0.9-1,1.7-1.2,2.6
				c-0.2,0.9,0,1.9,0,2.7c-0.9,0.3-1.5,0.5-2,0.7c0.4,0.5,0.9,0.8,1,1.3c0.2,1.7-0.4,3.5,1,5.1c0.4,0.5,0.4,2,0,2.4
				c-1.9,1.9-0.3,3.5,0.2,5.1c-0.4,0.5-0.8,0.8-0.8,0.9c0.5,1.9,1,3.7,1.4,5.5c-0.6,1.1-1.2,2.3-1.9,3.7c0.9,0.7,1.7,1.3,2.2,1.7
				c-0.4,1-0.9,1.8-0.9,2.5c-0.1,4.7,0,9.3,0,14c0,0.7-0.2,1.6,0.1,1.9c2,2,0.6,3.9-0.1,5.7c0.3,0.5,0.7,1,0.8,1.2
				c-0.3,1.7-0.5,3.1-0.8,4.4c-0.3,1.4-0.7,2.7-1,4.1c0.5,1.9-1.3,2.4-2,3.6c0,2.1,0,4.3,0,6.4c-1.3,0.1-1.3,1.1-0.8,1.7
				c1.5,1.5,1.2,3.6,0.6,4.6c-1,1.8-0.6,3.5-0.8,5.2c-0.1,0.8-0.1,1.6-0.3,2.4c-0.5,2.3-1.2,4.5-1.6,6.8c-0.1,0.8,0.6,1.7,0.7,1.9
				c-0.5,3.7-1,6.8-1.5,10.2c0.2,0.2,0.5,0.7,1,1.4c-2,2.1-2.5,4.7-2.2,7.4c-0.4,0.5-0.9,0.9-1,1.3c-0.6,2.1-1.2,4.2-1.5,6.4
				c-0.4,2.6-2.1,5-2.4,7.5c-0.4,3.9-2.7,6.6-4.8,9.4c-1,1.3-2.6,2.2-4.1,3c-1.1,0.6-2.4,1-3.5,1c-2.2,0-2.3,1.8-3.2,2.7
				c-2.5,1.8-5.3,1.3-8,1.4c-1.7,0-3.4-0.3-5,0.1c-1.5,0.3-2.8-1.6-4.2-0.1c-3.4-1.8-7.1-0.3-10.5-1.1c-2.9-0.7-6.3-0.7-8.7-3.2
				c-0.7-0.7-2-0.8-2.9-1.1c-0.1-0.5-0.2-1-0.3-1.6c-1.2,0-2.3,0-3.3,0c-1.1-1.8-2.1-3.4-3-5c-0.6,0-1.3,0-1.8,0
				c-0.8-0.9-1.6-1.8-2.7-3c0-0.2-0.1-0.9-0.2-1.7c-0.7-0.2-1.3-0.4-1.9-0.7c0.3-2.7,0-5.1-1.8-7c0.3-0.7,0.7-1.4,1-2.1
				c-0.9-0.3-1.4-0.5-2-0.8c0.3-0.8,0.6-1.5,0.9-2.3c-0.9-0.3-1.5-0.5-2.2-0.8c2.8-2.5-1.3-4.8,0.7-7.8c-1-0.4-1.9-0.8-2.5-1
				c1.9-2.9-0.7-4.7-0.5-6.5c-0.9-0.3-1.3-0.5-1.8-0.7c1.1-3.3-2.5-5.5-1.9-8.7c0-0.2-0.2-0.6-0.5-0.8c-0.7-0.5-1.4-0.9-1.9-1.1
				c1.8-3.5,2-6.2,0.4-8.9c-0.5-0.8-0.9-1.7-1-2.6c-0.4-4.9-0.8-9.7-1-14.6c0-1.9-0.8-3.3-1.6-4.9c-0.8,0-1.7,0-2.5,0
				c-0.3-1-0.6-2.1-1-3.4c2.5-2,0-5.1,1.5-7.5c0.5-0.1,1-0.2,2.1-0.4c-1.2-0.5-1.8-0.8-2.7-1.2c0.4-1.3,0.8-2.6,1-3.4
				c-0.4-1.4-0.8-2.4-1-3.3c0.9-0.9,1.5-1.6,2-2.1c0-1.4,0-2.5,0-3.8c-0.6,0.5-0.9,0.8-1.5,1.4c0-0.9,0-1.5,0-2
				c0.7-0.2,1.2-0.3,1.4-0.3c-0.7-2.6-1.4-5.1-2.1-7.7c-0.5-0.6-1.2-1.3-1.5-1.6c0.7-2.8,1.3-4.9,1.9-7.1c-0.7-0.3-1.3-0.5-2-0.7
				c0-0.5,0.2-1.2,0-1.5c-0.5-0.8-1.6-1.3-1.9-2.1c-1.2-3.4-4.8-3.5-7.2-4.8c-2.3-1.3-5.5-1-8-1.4c-1.9,1.3-3.3,2.2-4.9,3.4
				c-0.8,0-1.7,0-2.8,0c0,1.9,0,3.7,0,5.3c-1.1,0.7-2.1,1.2-2.5,1.5c-1.1,3.4-2,6.1-2.9,8.9c-0.6,0.2-1.2,0.4-1.7,0.6
				c0,0.6,0,1.1,0,1.6c-1.4-0.4-2.8,0.5-2.8,1.4c-0.3,4.7-3.9,8-4.8,12.5c-0.5,2.8-1.5,5.6-3,8.2c-1.5,2.7-4.1,4.8-4.4,8.1
				c0,0.3-0.8,0.4-1.1,0.7c-1.6,1.8-4,2.9-5.3,5c-1.4,2.2-3.6,3.2-5.6,4.5c-0.8,0.5-1.7,0.9-3.3,1.7c-0.8,0.3-2.8-1-4.1,0.6
				c-1.5-0.8-3.1-1.5-4.5-2.2c-0.2-0.9-0.3-1.8-0.5-3c-1,0.5-1.7,0.8-2.5,1.2c-1.2-1.3-2.5-2.6-3.3-3.5c-1.8-0.6-3.1-1-4.3-1.3
				c-0.5,0.4-0.8,0.6-1.3,1c-0.6-1.8-1.2-3.4-1.7-5c-0.8,0-1.6-0.1-2.4-0.2c-0.1-1-0.2-1.8-0.3-2.6c-3.5-2.6-3.5-7.2-5.9-10.5
				c-2.5-3.3-4.7-6.6-5.2-10.8c-0.8,0-1.5,0-2.2,0c-2-3.7-4-7.3-6-11.1c-0.5,0.5-0.8,0.8-1.1,1.1c-0.5-1.9-1-3.6-1.6-5.6
				c-1.1-1.3-2-3.5-3.7-4.3c-2.4-1.2-2.2-3.6-3.7-5.2c-0.6,0-1.3,0-1.8,0c-1-1.6-2-3.2-3-4.9c-1.4-0.1-3-0.2-4.3-0.3
				c0.3-1.1,0.5-1.9,0.8-3.4c-1.4,0.8-2,1.1-2.9,1.6c-0.1-0.7,0-1.3-0.2-1.9c-0.3-0.7-0.8-1.4-1.3-2.3c-1.5,0.3-2.9,0.5-4.1,0.7
				c-1-1.2-2-2.4-2.9-3.6c-1.8,0-3.5,0-5,0c-0.9-0.8-1.7-1.5-2.8-2.4c-0.4,0.7-0.6,1.1-0.8,1.5c-2.3-1.4-4.7-2.6-7-2
				c-1.8-0.8-3.1-1.5-4.5-2.1c-0.3,0.9-0.5,1.5-0.9,2.5c-1.2-3.5-4.7-1.5-6.6-3.6c-1.6,2-3.3,1.2-4.8,0.2c-1.2,0.1-2.1,2.4-3.1,0
				c0.4-0.9,0.7-1.8,1.2-3c-2.3,0.6-2.6,0.8-4.2,2c-0.3-0.3-1-0.5-1-0.8c0-1.7-1.2-1.1-2-1.2c-0.1-1.5-1.2-0.9-2-1
				c-1-0.3-2-0.9-3.1-1c-2.4-0.1-4.9-0.5-7.1,1c-4.9-0.6-9.7,1-14.2,1.1c-4.6,2.4-9.1,4.6-13.4,6.9c-1.1,0.6-2,1.7-3,2.7
				c-0.2-0.1-0.7-0.5-1.4-1.1c-1,1-1.8,2.1-2.8,2.8c-2.8,1.9-5.7,3.4-7.8,6.4c-1.3,1.9-3.2,3.7-4.9,5.4c-2.1,2.1-4.2,4.3-6.4,6.3
				c-2.5,2.5-4.4,5.3-5.9,8.5c-1.5,3.4-3.2,6.6-4.7,10c-1,2.3-1.9,4.6-2.2,7c-0.3,2-0.6,3.7-1.9,5c-0.8,6.9-3.3,13.4-3.3,20.3
				c-0.6,0.6-1.2,1.2-1.9,1.9c0,2.3,0,4.7,0,7.4c-3.2,0-2.9,2.9-4.2,4.4c0.5,0.6,0.8,0.9,1.2,1.3c-1.1,0.9-3.3,0.8-2.8,3.6
				c0.9-0.3,1.7-0.6,2.2-0.8c0.8,0.8,1.6,1.5,2.7,2.5c-1.3,0.6-2.7,1.2-4.5,2c0.9,0.8,1.7,1.5,2.5,2.2c-1.6,2-4.3,3.5-4,6.8
				c1,0.6,1.9,1.1,2.5,1.4c-0.3,2-0.5,3.8-0.8,5.7c-0.8-1-1.5-2-2.4-3.2c-0.4,2.9-0.7,5.2-1.1,8c0.4,0.3,1.2,0.9,1.9,1.4
				c-0.5,0.7-0.9,1.2-1.3,1.7c0.5,0.9,0.8,1.5,1.2,2.1c-0.5,1-1,2-1.6,3c-0.3-0.7-0.6-1.4-1.3-2.7c0,2.6,0,4.5,0,6.4
				c0.6,0.2,1.2,0.4,1.6,0.6c0,1.9,0,3.7,0,5.5c-0.9,0.1-1.7,0.2-2.5,0.3c-1.6,2.3-1.8,4.6-0.4,7.1c0.2,0.4-0.1,1.2-0.2,1.8
				c-0.9-0.5-1.5-0.8-2.2-1.2c-0.5,0.9-0.8,1.6-1.1,2.2c-0.9,0.1-1.7,0.1-2.8,0.2c1,1,1.6,1.7,2.5,2.7c-2.8,0.2-3.7,2.3-4.9,4.2
				c-0.6,0-1.3,0-1.9,0c-0.5,1-1,2-1.4,3c-1.2-0.3-2.4-0.6-3.8-1c-0.2,1-0.3,1.9-0.5,3c-2.9-0.8-3.7,2.1-5.8,3.1
				c-1.1-0.4-2.3-0.8-3-1.1c-2.3,0.7-1.9,2.3-2,3.8c0,0.4-0.3,0.8-0.5,1.4c-1.5-0.4-2.8-0.8-4-1.2c-0.3,0.7-0.5,1.3-0.8,1.9
				c-0.8,0-1.6,0-2.3,0c-0.3-0.8-0.6-1.4-0.9-2.2c-2,0.7-2.9,3.6-5.3,2c-0.1-0.9-0.3-1.8-0.4-2.9c-2.2,0.7-3,1.8-2.8,3.8
				c0,0.1-0.5,0.3-0.8,0.6c-0.3-0.1-0.7-0.3-1.2-0.5c0.4-0.4,0.7-0.8,1.1-1.2c-0.8-0.5-1.6-1-2.4-1.6c-0.8,1.6-1.5,2.9-2.3,4.6
				c-0.2-1.4-0.3-2.3-0.5-3.5c-3.6,0.5-7.1-0.7-10.3,0.8c-0.5-0.8-1-2.2-1.6-2.2c-3.1,0-3.8-3-5.8-4.4c-0.8-0.6-1.7-1.2-2.3-1.9
				c-0.7-0.7-1.2-1.6-1.9-2.6c-0.5,1.1-0.9,1.8-1.5,3c-0.7-1.7-1.2-3-1.5-3.8c-1.7-1.4-3.2-2.6-4.7-3.9c-0.9,0-1.9,0-2.8,0
				c-0.3-0.7-0.5-1.3-0.7-2c-1.5,0.3-3.1-0.5-4.1,1c-1.8-0.9-3.6-1.8-5.9-3c-1.2-0.1-2.8-0.2-4.5-0.8c-1.5-0.5-3.6,0.6-5.4,1
				c-1.9,1.4-3.8,2.8-5.4,3.9c-1.3-0.5-2.1-0.9-3-1.3c-0.2,1.3-0.4,2.2-0.5,3c-0.7,0.1-1.1,0.2-1.6,0.3c-0.1,1.3-0.2,2.6-0.3,3.6
				c-1.3-0.7-2.3-1.3-3.5-1.8c-0.3-0.1-0.9,0.2-1.5,0.3c0,1.2,0,2.3,0,3c-1.2,0.8-2.1,1.4-2.9,2c0,1.2,0,2.2,0,2.8
				c-0.9,1.1-1.7,1.9-2.4,2.7c-0.6-0.4-1.1-0.8-1.4-1c-0.5,0.1-0.6,0.1-0.8,0.2c-1.7,1.3-2.1,2.8-0.5,4.5c-2.1,2.8-0.2,6.1-1.2,9.2
				c-0.4,0.2-1,0.4-1.8,0.7c0.9,4-3.4,3.9-5,6.2c0,0.8,0.3,1.8-0.1,2.5c-0.9,1.7-1.2,2.9-0.1,4.8c0.5,0.8,1.4,3.2-0.8,4.2
				c-0.6,0-1.2,0-1.7,0c-0.3-0.8-0.5-1.3-1-2.4c-0.4,2.5-0.6,4.3-0.9,6.3c0.3,0.5,0.7,1.3,1.1,2.1c0.5,0,1,0,1.5,0
				c0,0.7-0.1,1.3,0,2s0.5,1.2,0.8,1.9c-1,0.1-1.8,0.2-3,0.3c0.6,4.3,0.1,8.4-2,12c0.5,0.7,0.8,1.2,1,1.4c-0.7,2-1.6,3.7-1.8,5.5
				c-0.2,1.8,0.4,3.7,0.7,5.5c-0.9,0.5-1.8,1.1-2.8,1.7c0,1.5,0,3,0,4.2c-3.7,2.2-7.2,4.2-10.8,6.3c-0.4,0.6-1,1.4-1.5,2
				c-2.1-1.6-4.8,0-6.6-1.8c-1.5-1.4-3.8-1.9-4.7-4c-1,0-2,0-3,0c-0.7,1.4-1.3,2.7-2.1,4.3c-2.9-1.8-5.6-3.7-8.8-1
				c-0.6-1-1-1.7-1.5-2.6c-1.2,1.4-2.2,2.5-3.3,3.8c-0.7-1.2-1.1-1.9-1.8-3.2c-0.7,1.3-1.1,2-1.6,2.9c-1.7,0-3.5,0-5.2,0
				c-0.3,0.7-0.4,1.3-0.6,1.9c-0.5-0.4-0.8-0.8-1.2-1.1c-2.1,0.8-4.3,1.6-5.8,2.2c-1.6,2.4,1.8,3.8,0,5.9c-0.3,0-0.6,0-1.2,0
				c-0.2-1-0.4-2-0.6-3c-0.6,0-0.9,0-1.3,0c-0.2,0.6-0.4,1.1-0.6,1.8c-1.5,0.3-3.3,0.2-3.7,2.1c0.4,1,0.7,1.9,1.3,3.6
				c-2.2-1.9-3.7-1.9-5.5-1c0.5,0.9,0.8,1.5,1.1,2.2c-2.4,0.3-4.6,0.5-6.7,0.8c-0.3-0.6-0.5-1.1-0.7-1.6c-2.6,1-5,2-7,2.8
				c-0.7-0.7-1.3-1.3-1.9-1.9c-0.5,1-0.8,1.7-1,2c-2.6-0.3-5-0.7-7-0.9c-0.8-1.1-1.6-2-2.2-2.9c-2.2,0.5-4,0.9-6.4,1.4
				c-0.5-0.8-1.1-1.7-1.6-2.6c-1.2,0.4-2.2,0.7-3.2,1c-0.8-2.1-2.7-3.2-4.8-3.7c-2.1-0.5-3.7-2.3-6.1-2.3c-0.4,0-0.6-2-2.1-1.9
				c-0.4-2-2.1-2.3-3.7-2.8c-0.2-0.1-0.3-0.4-0.3-0.5c0.4-0.6,0.6-1.2,1-1.9c-5.7-4.6-9.1-10.8-12-17.1c-2.3-4.8-3.8-10.1-5.3-15.3
				c-1.2-4-2.3-8.1-2.9-12.3c-0.8-3.8-1.6-7.7-2.4-11.9c-0.3-0.2-0.9-0.6-1.6-1.1c0-0.7,0-1.3,0-2c1.9-1.5,0.4-4,2.9-6
				c-1.7,0-2.3,0-2.9,0c0-0.7,0-1.3,0-2c0.6,0,1.2,0,2.6,0c-0.8-1-1.2-1.5-1.6-2c0-0.7,0-1.3,0-2c0.3-0.3,0.7-0.5,1-0.8
				c-0.3-0.4-0.7-0.8-1-1.2c-0.3-1.4-0.5-2.8-0.7-3.7c0.3-1.9,0.6-3.4,0.6-5c0.1-9.8,0-19.7,0.1-29.5c0-1.7,0.4-3.4,0.6-5.5
				c-1.1-1.3-0.8-3.2-0.4-5.1c0.2-0.8,0.7-1.5,0.7-2.2c0-3.7,0.4-7.5-1-11.1c0.6,0,1.2,0,1.9,0c0.6-5.5-0.6-10.7,1-15.9
				c0.4-1.3,0.5-3.1-0.7-4.6c-0.5-0.6,0-2.2,0.1-3.3c0.1-0.8,0.6-1.5,0.7-2.2c0.3-4.7-0.5-9.4,1-14.1c0.4-1.4,0.1-3,0.1-4.5
				s0-3,0-4.5c0-1.7,0.6-3.7-0.1-4.9c-1-1.6,0.3-2.5,0.2-3.8c-0.1-1.4-0.9-2-2-2.4c0-0.3,0-0.7,0-1c-0.1-0.8,0.5-1.9-1-2
				c0-0.7,0-1.3,0-2c1.1-0.9,2.1-1.7,2.9-2.4c0-2.8,0-5,0-7.7c-1-0.3-1.9-0.6-2.9-0.9c0-1,0-2,0-3c0.8,0,1.7,0,2.5,0
				c0.5-0.5,0.9-0.9,1.6-1.6c-0.1-1,0.2-2.4-0.4-3.1c-0.8-1.1-0.4-2.2-0.7-3.3c-0.2-1-0.6-2.1-0.8-2.8c0.3-1.4,0.8-2.6,0.8-3.9
				c0.1-4.3,0-8.7,0.1-13c0-1.2,0.6-2.4,0.7-3c-0.4-2-0.6-3.5-1-5c-0.1-0.3-0.5-0.5-0.7-0.7c1.9-1.3-0.1-3.9,1.9-5.1
				c0.1,0,0-0.3,0-0.8c-2-2-0.5-4.8-1.2-7.7c-0.8-0.3-1.8-0.6-2.8-0.9c0-0.7,0-1.3,0-2c0.9,0,1.9,0,2.9,0c0-2.1,0-3.9,0-5.7
				c-0.6-0.4-1.3-0.8-1.9-1.3c-0.1-2,0.5-4.2-0.8-5.7c0.3-1.6,0.5-2.9,0.8-4.3c0.3-0.1,0.8-0.2,0.8-0.4c0.6-6.1-0.6-12.4,1.2-18.4
				c-1.6-1.9,1.3-4.4-1-6.3c-0.2-0.2-0.1-1,0-1.5c1-4.4,0.9-4.4,0-9.1c-0.3-1.6-0.3-3.4,0-4.9c1.1-5.3,0.9-5.2,0-11.1
				c-0.3-2.1-0.9-4.5,0.6-6.7c0.4-0.5,0.5-1.9,0.1-2.2c-1.4-1.3-0.5-2.8-0.9-4.2c-0.1-0.5-0.6-0.9-1-1.3c0-1,0-2,0-3
				c0.3-0.4,0.9-0.8,1-1.3c0.2-1.8-0.3-3.8,0.3-5.3c1.4-3.5,0.4-6.9,0.6-10.4c-0.9,0-1.4,0-1.9,0c0-1,0-2,0-3c0.6,0,1.2,0,1.8,0
				c0.1-0.6,0.3-1,0.2-1.2c-0.2-0.4-0.5-0.8-0.8-1.2c1.1-2.4,1.1-2.4-1.1-6.1c1.4-0.9,0.9-2.3,1-3.5c0-1.3,0-2.7,0-4
				c0.2-0.4,0.4-0.8,0.6-1.1c0.6-0.9,0.8-1.6-0.6-1.9c0-0.7,0-1.3,0-2c0.6,0,1.2,0,1.9,0c0-0.8,0-1.2,0-1.6
				c-0.7-0.3-1.3-0.5-2.1-0.9c1-0.4,1.5-0.6,2.3-0.9c-0.1-0.9-0.2-1.8-0.2-2.6c-0.8,0-1.3,0-1.8,0c0-0.7,0-1.3,0-2
				c1.8-1.1,0.9-2.6,0.8-4c-0.8,0-1.3,0-1.8,0c0.2-2.4-0.5-4.8,0.9-7.1c0.5-0.7,0.5-2.2,0-2.9c-1.6-2.6-0.6-5.4-1-8.1
				c0-0.3-0.3-0.6-0.4-0.8c-0.5-0.1-0.9-0.2-1.4-0.3c-0.5-2.8-1-5.6-1.5-8.6c-2.4-2.4-1.5-5.8-1.7-8.9c-3-0.3-3.6-3-5-4.8
				c0-0.1-2.9-4.4-2.9-4.4c-2.5-1.3-4.1-3.4-5.1-6c-0.2-0.7-0.3-1.5-0.7-2.1c-1-1.3-2.1-2.6-3.1-3.9c-1.5,0.4-2.4,1.3-2.2,3
				c-1.4,0.3-2.2-0.5-2.9-1.4c-0.6-0.8-1-1.8-1.6-3c-1,0.6-1.6,1-2.3,1.4c-0.8-0.3-1.8-0.5-2.5-1c-4.3-2.9-4.3-2.8-8.1-3
				c-2.9-0.1-5.8,0.8-8.5-0.9c-0.6-0.4-2-0.4-2.4,0c-1.6,1.9-3.8,0.2-5.7,1.4c-0.5,0.8-1,1.7-1.6,2.6c-1,0-2,0-2.2,0
				c-2.6,1-3.1,3.7-5.5,4c-0.6,2.4-3.1,1.9-4.6,3c-0.1-0.7-0.3-1.4-0.4-2.1c-3.9,1-3.5,4.9-5.6,7c-1.6,1.8-3.9,3-4.5,5.9
				c-0.6,2.7-2.5,5.1-4,8.2c1.3,0,1.9,0,2.5,0c0,1,0,2,0,3c-1.3,0-2.5,0-3.6,0c-2.1,3-1.3,6.1-1.4,9c0,5.7,0,11.3,0,17
				c-1,1-2,1.9-3,2.9c1.2,2.4,1.5,4.7,0.4,7.3c-0.8,1.8-1.3,3.9-1.3,5.9c0.1,4.2,0.1,4.8-2.1,8.3c-0.2,2.2,0.6,4.6-1.1,6.5
				c0.9,2.1,1.9,5.4,0.9,7.6c-1.4,3.1-0.5,5.8,0.3,8.6c-0.8,1-1.6,1.8-2.3,2.6c0.8,1.6,1.5,2.9,2.3,4.4c-0.8,0.8-1.5,1.7-2.3,2.5
				c0.8,1.5,1.5,2.9,2.3,4.4c-2,1.6-1.2,3.3-0.1,4.8c-0.5,0.8-0.9,1.5-1.2,2.1c0.5,0.7,0.8,1.2,1.3,1.9c-1.3,1.6-1.9,3.4-0.2,4.8
				c-0.4,1.4-1,2.4-0.9,3.4c0.2,0.9,1.1,1.7,1.8,2.5c-2.1,2.1-0.2,3.9,0.2,5.7c-2.5,3,0.6,7-2,9.5c0.7,2,1.4,3.7,2,5.5
				c-1.3,1.5-1.2,3-0.5,4.9c0.9,2.1,1.2,4.6,1.4,6.9c0.1,1.2-1,2.5-0.9,3.6c0.7,4.4-1.7,8.8-0.2,13.2c0.3,1-0.5,2.4-0.9,3.6
				c1.4,1.3,1.4,2.9,0.6,4.4c-1,1.8-0.9,3.3,0.2,4.7c-0.7,1.3-1.3,2.5-1.9,3.7c1,1.2,1.9,2.4,0.8,3.6c-1.3,1.4-1,3.2-0.5,4.2
				c1.5,2.9,0.5,5.8,1,9c-0.7,0.5-1.5,1.1-2.2,1.6c0.1,1.1,0.2,1.8,0.4,3.1c0.6-1.2,0.9-1.9,1.2-2.5c-0.1,1.9,1.1,3.6-0.3,5.6
				c-0.7,1-0.8,3.5,0.8,4.9c-1.7,1.7-0.7,3.6-0.8,5.3c0.8,0.2,1.3,0.3,1.8,0.4c-1.3,2.1-3.4,3.8-2.8,6.6c0.8,0.2,1.3,0.4,1.4,0.4
				c-1.2,3.9-0.2,7.8-0.8,12.1c-0.4,0.2-1.3,0.7-1.9,1.1c0.8,2,1.4,3.6,1.8,4.6c-0.3,1.5-0.6,2.5-0.6,3.6c0.1,1,0.6,2,1.1,3.1
				c-0.7,0.1-1.1,0.2-1.8,0.4c-0.4,1.1-0.9,2.3-1.5,3.7c1.2,0.1,2,0.2,2.8,0.4c0.1,0,0.2,0.2,0.4,0.3c-2.1,2.4-2.8,3.8-3,5.8
				c-0.6,6.6-4.3,11.1-9.9,14.3c-0.1,0.8-0.1,1.5-0.1,1.4c-2,2-3.4,3.4-5.4,5.5c-4,2.2-10.1,1.9-14.6,6.2c-2.1-2.4-4.5-3.9-6.8-3.5
				c-1.7-1.5-2.9-2.5-4.3-3.7c1.6-2.8-2.5-4-1.9-6.7c0.1-0.5-1.2-1.4-1.4-1.5c-0.7-2.8-1.2-4.9-1.7-7c-0.8,0-1.3,0-1.8,0
				c0-7.8,0-15.6,0-23.5c0-1,0.3-2.2-0.1-3c-1.4-2.8-1.3-5.4-0.1-8.2c0.5-1.2,0.2-3-0.4-4.2c-1.1-2.4-0.4-4.3,0.3-5.8
				c-0.3-1.6-1.1-3.1-0.7-3.6c1.3-1.7,0.8-3.4,0.9-5.2c0.1-2.5-0.1-5,0.1-7.5c0.3-4.5-0.9-9.1,0.9-13.6c0.3-0.6-0.6-1.7-0.9-2.5
				c1.6-2,1.4-4.1,0.1-5.7c0.4-1.3,1.1-2.4,0.8-3c-1.7-3.6-0.7-7.4-0.9-11.1c-0.1-1.2,0.6-2.4,0.9-3.5c-1.7-2.3-1.1-4.5-0.2-6.3
				c-0.3-1.8-0.6-3.2-0.7-4.5c-0.5-6.5,0.6-13-0.9-19.6c-0.8-3.6-0.4-7.6-0.1-11.4c0.4-4-1.3-7.7-1.1-11.6c0.2-3-0.1-6,0.1-9
				c0.5-10.5-1.8-21-1.1-31.5c0.1-1-0.6-2-1-3.1c1.4-0.9,1-2.3,1-3.6c1.6-1.8,1.6-2.1-1-4c0-0.3,0-0.7,0-1c0.3-0.4,1-0.9,0.9-1.3
				c-1-3.8-2.8-7-5.9-9.4c-0.1-0.8-0.1-1.6-0.2-2.3c-1,0-1.6,0-1.7,0c-2.7-2.2-5-4.1-7.4-6.1c-0.5,0.8-0.9,1.6-1.4,2.5
				c-0.8-0.6-1.3-0.9-1.6-1.2c-2.3,0.8-4.7,1.6-5.9,3.6c-0.9-0.4-1.4-0.7-2.1-1c-0.8,1.5-1.4,2.9-1.9,3.9c-1.4,0.7-2.5,1.2-3.1,1.5
				c-0.7,1.4-1.3,2.4-1.6,3.4c-0.7,2.6-3.3,3.6-4.1,6.3c-1.3,4.4-2.6,8.7-2.9,13.3c-0.1,0.7-0.7,1.4-1,2c1.3,2.9,1.5,4.1,0.5,6.9
				c-0.6,1.8-0.4,3.3,0,5.1c0.9,3.6,0.9,7.3-0.1,11c-0.7,2.9-1.8,5.8-1.5,8.9c0.1,0.7,1.9,1.3,0.3,2.3c-1,5.6-1.7,11.4-2.3,17
				c-0.2,1.5,1.7,2.5,0.3,4.3c-0.8,1,0,3.2-0.2,4.9c-0.1,0.9-0.6,1.7-0.8,2c0.3,1.9,1.1,3.5,0.7,4.6c-2.6,6.2-1.9,13-3.8,19.4
				c-0.5,1.5,0.5,3.6-0.2,4.9c-0.9,1.6-1.1,2.9-0.5,4.5c0.6,1.5-0.7,2.8-0.4,4.3c0.6,3.3-0.8,6.2-1.9,8.7c2.5,6.3-1.2,11.5-1.2,16.9
				c-0.8,0.2-1.2,0.3-1.8,0.4c-0.1,1.2-0.1,2.3-0.2,3.5c-2.5,1.7-5,3.4-7.8,5.3c-1.9,0-4.2-0.1-6.5,0c-2.4,0.2-4.9-0.8-6.9,0.7
				c-2.3,0.2-2.3-2.6-4.3-2.8c-0.4-3.1-2.3-5.7-3.4-8.6c-0.6-1.7-1.1-3.5-1.5-5.4c-0.6-2.4-1-4.9-1.5-7.4c2.3-2.3,0.5-4.4-0.4-6.5
				c-0.4-1-0.7-2-1-2.9c-0.6-0.3-1.2-0.5-2.1-0.8c1-1.3,1.8-2.2,2.5-3.1c-1-2.9-2-5.6-3-8.4c0.4-0.6,0.7-1.3,1.1-1.9
				c-0.4-0.6-0.7-1.1-0.8-1.4c0.6-1.2,1.1-2.3,1.6-3.3c-0.8-0.3-1.4-0.5-2.2-0.7c0.5-1,0.9-1.8,1.4-2.9c-0.7-0.5-1.4-1.1-2.2-1.6
				c-0.1-1.3,0.4-2.6-0.9-3.5c0.4-0.5,0.7-1,1.1-1.5c-0.5-0.7-0.8-1.2-1.2-1.7c-0.1-0.1,0-0.3,0-0.5c2.8-2.9-0.9-5.6,0.3-9
				c-1-0.4-1.9-0.9-2.5-1.1c0-1.6,0-2.5,0-3.3c-2.9-1.6-5.5-3.5-8.8-3.4c0-1.3,0-2.6,0-3.5c-2-1-3.7-1.8-5.3-2.6
				c-0.5,0.5-0.8,0.8-1.4,1.3c-0.6-0.8-1.2-1.5-2-2.5c-2.5,0.5-4.9,1-7.2,1.5c-0.2,0.8-0.3,1.2-0.3,1.7c-0.9,0.1-1.7,0.2-2.5,0.3
				c-0.8,1.6-1.4,3.1-2.4,4.6c-0.9,1.4-1.9,3-3.3,4c-1.4,1-1.4,2.9-3.3,3.7c-1.4,0.6-3.5,1.5-3.9,3.6c-3.9-0.2-7.4,1-10.9,3.1
				c-0.8-0.3-1.5-0.6-2.3-0.9c-0.2,0.6-0.4,1.2-0.6,1.7c-2.5-1.1-3.7-3.9-6.5-4.2c-0.4-2.5-2.4-3.3-3.9-4.2c-0.5-1-1-1.8-1.2-2.7
				c-0.2-0.9-0.1-1.9-0.2-2.8c-0.7,0-1,0-1.3,0c-1.2-2.2-2.4-4.3-3.5-6.5c-1.1-2.1-2.6-3.8-5-4.5c-2-0.6-0.4-2.9-1.9-3.8
				c-1.1-0.7-1.8-2.1-2.9-3.4c-0.9,0.4-2.1,1.1-3.2,1.1C3.7,243.9,2.3,243.3,1,243z"/>
			<path class="st1" d="M864,372c0-0.5,0-1,0-1.6c0.5-0.2,1.1-0.4,1.7-0.6c0.9-2.8,1.8-5.6,2.9-8.9c0.4-0.2,1.3-0.8,2.5-1.5
				c0-1.6,0-3.4,0-5.3c1.1,0,2.1,0,2.8,0c1.6-1.1,3-2.1,4.9-3.4c2.4,0.4,5.7,0.1,8,1.4c2.4,1.4,6,1.4,7.2,4.8
				c0.3,0.8,1.4,1.4,1.9,2.1c0.2,0.3,0,1,0,1.5c0.6,0.2,1.2,0.4,2,0.7c-0.6,2.2-1.2,4.4-1.9,7.1c0.3,0.3,0.9,1,1.5,1.6
				c0.7,2.6,1.4,5.1,2.1,7.7c-0.2,0-0.6,0.1-1.4,0.3c0,0.5,0,1.2,0,2c0.6-0.5,0.9-0.8,1.5-1.4c0,1.4,0,2.5,0,3.8
				c-0.4,0.5-1.1,1.2-2,2.1c0.3,0.9,0.6,1.9,1,3.3c-0.3,0.9-0.7,2.2-1,3.4c1,0.4,1.5,0.7,2.7,1.2c-1.2,0.2-1.6,0.3-2.1,0.4
				c-1.5,2.4,1.1,5.6-1.5,7.5c0.4,1.3,0.7,2.4,1,3.4c-0.4,0.5-0.8,1-1.2,1.5c1,0.4,1.6,0.6,2.1,0.8c-0.3,1.4-0.8,2.8-0.9,4.1
				c-0.2,1.8-0.1,3.7,0,5.5c0.1,2-0.5,4.4,0.5,5.8c1.5,2.2-0.7,3.3-0.5,4.9c0,0.2-0.1,0.4,0,0.5c2,3.2,0.7,6.7,0.9,10.1
				c0.1,1-0.6,2-0.9,3.1c0.3,0.5,0.9,1,1,1.6c0.4,5.9-0.7,11.8,0.9,17.8c-0.2,0.2-0.5,0.5-1,1.1c2.8,3.7-0.3,8.5,2.2,12.5
				c0,4.5,0,9,0,13.4c0.7,0.3,1.3,0.5,1.9,0.8c0,0.8,0,1.5,0,2.3c-0.7,0.2-1.3,0.5-2.1,0.7c0.8,0.4,1.5,0.7,1.8,0.9
				c0.5,1.9,0.9,3.6,1.3,5c-0.4,0.8-0.8,1.5-1.2,2.3c0.9,0.3,1.4,0.5,2.5,0.9c-1.4,2.2,1.2,4.5-0.1,6.6c1.6,2.5,3.2,4.9,4.6,7.3
				c2,3.6,4,6.4,6.3,7.2c2.7,0.9,4.5,3.3,7.5,3.7c0.7,0.1,1.2,1.7,1.9,2.7c1.7,0.3,3.6,0.7,5.4,1c0,0.6,0,1.2,0,2c1.2,0,2.1,0,3,0
				c0.8,0,1.7,0,2.8,0c0.5,0.6,1.1,1.4,1.8,2.3c1.6-0.4,3.1-0.8,4-1c3.2,0.5,5.8,1.1,8.5,1.2c2.6,0.1,5.4,0.1,7.8-0.6
				c2.9-0.9,5.7-2.3,8.7-3.1c1.6-0.4,2.9-1.9,4.2-3.1c0.4-0.3,0.4-1.1,0.6-1.7c1.5-1.3,4-0.4,5.2-2.1c1.4-2.1,3.7-3.4,4.5-6
				c0.2-0.7,1.3-1.1,2-1.7c0-0.6,0-1.2,0-2c0.5-0.1,1-0.2,1.7-0.3c0.8-4.2,2.8-7.9,5.5-12.1c0-1.2,0-3,0-4.7
				c0.7-0.1,1.2-0.2,1.7-0.3c-1.2-2-1.3-3.8-0.4-5.9c0.8-2,0.9-4-0.1-6c-0.3-0.5-0.6-1.4-0.4-1.8c1.6-2.6,0.7-5.4,1-8.1
				c1-1.7,2-5.4,1.8-6.6c0-0.2-0.5-0.2-0.8-0.4c-0.3-1.7-0.7-3.3-1-5c0.3-0.1,0.5-0.2,0.8-0.3c-0.3-0.2-0.5-0.5-0.8-0.7
				c0.1-0.6,0.2-1.2,0.3-1.8c0.2-0.7,0.4-1.5,0.7-2.2c0.6,0,1.2,0,2.4,0c-0.6-1.6-1-2.8-1.4-4c0-1.6,0-3.3,0-4.9
				c0-1.7,0.1-3.4,0.8-5.1c0.5-1.1-0.5-2.9-0.8-4.5c-0.1-0.5-0.2-1.1,0-1.5c1.3-1.7,0.8-3.7,1-5.5c0-0.5,0.8-0.9,0.9-1.1
				c-0.4-1.5-0.9-2.5-1-3.5c-0.1-2.6,0-5.3,0-7.9c0.2,0,0.5,0,0.5,0c0.9-3.3,0.9-6.7,0-10c0,0-0.3,0-0.5,0c0.3-1.4,0.7-2.7,1-4.1
				c0.3-1.4,0.5-2.7,0.8-4.4c-0.1-0.2-0.5-0.7-0.8-1.2c0.7-1.9,2.1-3.7,0.1-5.7c-0.3-0.3-0.1-1.3-0.1-1.9c0-4.7,0-9.3,0-14
				c0-0.7,0.5-1.4,0.9-2.5c-0.5-0.4-1.3-1-2.2-1.7c0.7-1.4,1.3-2.6,1.9-3.7c-0.5-1.8-0.9-3.5-1.4-5.5c0.1-0.1,0.4-0.5,0.8-0.9
				c-0.5-1.6-2.1-3.3-0.2-5.1c0.4-0.4,0.4-1.9,0-2.4c-1.4-1.6-0.8-3.4-1-5.1c0-0.4-0.6-0.8-1-1.3c0.6-0.2,1.1-0.4,2-0.7
				c0-0.8-0.2-1.8,0-2.7c0.2-0.9,0.8-1.7,1.2-2.6c-0.6-1.2-1.3-2.3-1.7-3.4c-0.3-0.9-0.8-2-0.5-2.7c1.6-3.3,0.8-6.7,0.9-10.1
				c0-2.5,1-4.6,2-6.9c-1.1-3-1.6-6.2-0.2-9.5c0.5-1.1,0.3-2.6,0.3-3.9c-0.1-2.3,0.3-4.5,2-6.3c0-1.5,0-3.2,0-5
				c2.4-1.2,1.8-4.1,3.6-6.3c0.2-0.1,1-0.3,1.5-0.8c1.5-1.5,3.6-1.8,5.4-2.6c2.1-0.9,3.4-0.3,5.3,0.1c2,0.4,4.4-0.4,6.9-0.8
				c0.4,3.1,1.4,6,5.1,6.9c0,1,0,1.8,0,2.6c0.7,0.3,1.3,0.5,1.7,0.6c2.5,5.9,2.7,12,2.5,18.1c0,1.5,0.6,3.1,1,5
				c-0.6,0.6-1.3,1.4-2,2.1c1.4,2.1,1.1,4.3,0.5,6.5c-0.3,1.4-1,3.2-0.5,4.2c1.3,2.2,0.8,4.4,0.8,6.7c0.1,7.7,0.1,15.3,0,23
				c0,6.9,1.6,13.7,1.1,20.6c-0.1,1.6,1.9,3.5,0.8,5c-1.4,1.9-0.6,3.8-0.9,5.7c0,2.3-0.1,4.6,0,7c0.2,2.4,0,5.1,1.1,6.9
				c1.3,2.1,0.4,4.3,1.4,6.4c0.9,1.9,0.3,4.5,0.5,6.8c0,0.3,0.3,0.5,0.4,0.8c0.4,0.1,0.9,0.2,1.5,0.4c-0.3,0.7-0.7,1.3-1,1.9
				c0.7,1.5,2.8,2.1,1.9,4.4c1.1,0.9,2.2,1.8,3.3,2.6c-0.6,0.8-0.9,1.3-1.4,2c0.9,0.6,1.6,1.2,2.4,1.7c-0.1,1.7-0.2,3.4,2,4
				c0.3,0.3,0.7,0.7,1,1c0.4,1-0.9,2.5,1,3c-0.2,1.1,0.1,2,1.1,2.6c2.9,1.8,5.9,3.6,9.1,5.5c0.9,0,2.2,0,3.4,0
				c0.7,0.7,1.3,1.3,1.9,1.9c1.8,0,3.7-0.2,5.4,0.1c1.8,0.3,3.5,1.2,5.4,1.8c2.3-1.3,5-2.2,8-1.9c2,0.2,3.7-0.6,5.5-1.2
				c1.9-0.7,3.8-1.6,5.8-1.7c1.6,0,3.2,1,4.8,1.6c1.3,0.5,2.5,1.1,3,1.3c1.2,1.7,2,2.6,2.4,3.2c0.5,5.6,1.2,10.8,1.3,16
				c0.2,8.8-0.2,17.6,0.1,26.5c0.4,8.9-1.1,17.7-1.1,26.5c0,1.4-0.9,2.7-0.9,4.1c0,1.5,0.6,2.9,0.9,4.4c-0.8,0.3-1.4,0.5-2.1,0.7
				c0.9,0.4,1.6,0.7,2.4,1.2c-0.5,0.9-0.9,1.7-1.3,2.7c0.8,0.8,1.5,1.7,2.5,2.8c-2.1,1.4-2,3.9-1.2,5.3c1.1,2,0.7,3.2-0.2,4.8
				c-0.1,0.2,0.2,0.5,0.4,0.9c0.4,0,0.9-0.1,1.3-0.1c0.3-0.7,0.5-1.2,0.7-1.7c0.3,0.1,0.5,0.2,0.8,0.2c-0.4,2.4-0.8,4.9-1.2,7.4
				c1.1,0.2,2,0.3,3.1,0.5c0,2.6,0,5.1,0,7.6c1.4,0.1,2.7,0.2,4.1,0.3c0,1,0,1.8,0,2.6c0.6,0.2,1.1,0.3,2.1,0.6
				c-2.4,2.7,1.7,3,1.9,5.4c0.1,1.7,2.3,3.1,3.2,5c0.8,1.8,2.2,3.4,3.3,5c0.3-0.4,0.9-1.1,1.4-1.7c0.5,1.2,0.9,2.4,1.5,4
				c0.3,0,0.9,0,1.5,0c0,0.3,0,0.7,0,1s0,0.7,0.1,1c0,0-0.1-0.1-0.1-0.2c-0.3,0.2-0.5,0.5-0.8,0.7c0.1,0.1,0.2,0.2,0.3,0.3
				c0.2-0.3,0.5-0.5,0.6-0.9c0.4,0,0.9,0,1.4,0c1,1.8,1,1.8,3,3.1c0.2-0.4,0.4-0.7,0.6-1.1c1.5,0.7,3.1,1.2,3.6,3c1.1,0,2.3,0,3.4,0
				c0,1.3,0,2.6,0,3.8c1.8,0.1,3.3,0.1,4.7,0.4c1.4,0.3,2.7,0.8,4.1,1.2c0.1,0.4,0.3,1,0.6,1.8c0.4-0.9,0.7-1.5,1.1-2.3
				c0.4,0.8,0.7,1.5,1.1,2.3c1.2-0.3,2.3-0.5,3.3-0.8c0.1,0.6,0.2,1,0.3,1.4c2.4,0,4.6,0,6.8,0c0-0.8,0-1.3,0-1.8c1.2,0,2.3,0,3.2,0
				c1.2,0.8,2.2,1.5,3.2,2.3c0.5-1,0.8-1.7,1.2-2.6c0.9,0.5,1.5,1.3,2.2,1.3c4.9,0,9.8,0.7,14.5-1c1-0.4,1.9-1,3.1-0.9
				c1.6,0.1,3.2-0.7,4.5-1.2c1.3-0.5,3.4,0.3,4.2-2.1c0.4-1.4,2.8-0.7,4-2.1c1.3-1.4,3.3-2.9,5.1-3.1c3.7-0.4,5-3.4,6.6-5.7
				c1.5-2.1,3.8-3.7,4.5-6.5c0.2-0.8,1.7-1.2,2.7-1.8c0-0.6,0-1.3,0-2.1c0.5-0.2,1.1-0.4,1.6-0.5c1.1-2.2,2.1-4.2,3.5-6.9
				c0-0.8,0-2.2,0-3.6c0.5-0.2,0.8-0.2,1.1-0.3c0.3-0.1,0.6-0.3,0.9-0.5c0.1-2.8-0.5-5.8,2-8.1c0-2.5-0.6-5.2,0.2-7.4
				c0.8-2.3,1-4.2-0.2-6.2c1.3-2.2,0.9-4.7,1-7.1c0.1-2.4,0.4-4.7,0.6-7.3c-1.4-3.7,2.6-8.2-0.7-11.7c0.6-0.8,0.9-1.3,1.1-1.4
				c-0.4-1.5-0.6-2.5-0.9-3.6c-0.4-1.1-0.8-2.2-1.2-3.3c1-0.4,1.6-0.7,2.5-1.1c-1.1-0.4-1.7-0.6-2.3-0.8c0-1.4,0-2.7,0-4
				c0-6.8,0-13.6,0-20.5c0-1.4-0.3-2.7-0.8-4.1c-0.4-1,0.5-2.6,0.8-4c-0.2-2.3,0.5-4.7-0.7-6.7c0.7-0.4,1.2-0.6,1.7-1
				c0.1-0.1-0.1-0.6-0.1-1c-0.6-0.2-1.1-0.4-1.9-0.7c0.8-0.8,1.4-1.6,2.3-2.5c-0.5-1.1-0.9-2.1-1.3-3.1c-0.2-0.9-0.5-1.8-0.9-3.3
				c0.3-1.1,1.4-2.6,0.3-5.1c-1-2.1-0.1-5,0.1-7.6c0-0.6,0.4-1.2,0.5-1.8c0.4-3.8,0.6-7.7,1.1-11.5c0.2-1.4,0.8-2.7,1.2-4.3
				c0.9-0.7,2.9-0.8,2.7-3.2c2.4-0.5,4.9-1,7.5-1.5c1.3,1.7,2.4,3.2,3.5,4.8c0,2.6,0.1,5.3,0,7.9c-0.2,4.6,1.8,8.9,1,13.5
				c1.8,3,1.1,6.4,0.9,9.5c-0.2,3,1.2,5.6,1.1,8.5c0,3-0.1,6,0,9c0,0.7,0.6,1.4,0.9,2.1c-0.1,7.4,1.5,14.6,1.1,22.1
				c-0.2,2.8,0.3,5.8,1.1,8.5c0.9,3.4,1.7,6.8,1.7,10.2c0,3.1,2.2,5.6,2.1,8.7c2.2,0.4,2.1,3,3.8,3.8c0.8,0.4,1.7,0.7,2.8,1.1
				c1.9,1.5,4,3.1,6,4.7c0.9,0,1.6,0.1,2.2,0c0.7-0.2,1.3-0.5,1.9-0.8c0.3,0.8,0.5,1.3,0.7,2c1.8-0.5,3.5-2.3,5.3-0.2
				c1.9-0.3,3.8,0.6,5.7-0.8c0.8-0.6,2.2-0.3,2.6-0.3c2-1.4,3.5-2.3,4.9-3.3c3.6-2.5,3.6-2.6,6.3-7.2c0.5-0.9,1.7-1.3,2.6-2
				c0.5-2.3,1-4.8,1.5-7.5c0.5-0.4,1.1-1,1.2-1.1c0.9-4.4,1.4-8.4,2.6-12.1c0.4-1.4,0.8-2.7,0.9-4.1c0.3-5.5,0.6-11,1-16.6
				c0.1-0.9,0.7-1.7,1.1-2.4c-0.4-0.4-0.8-0.6-0.8-0.9c-0.2-6.6-0.3-13.2-0.4-19.8c0.3-0.3,1-0.7,0.9-0.8c-1.4-2.2-0.9-4.7-1-7.1
				c-0.1-1.3,0.4-2.6-0.9-3.7c-0.4-0.4-0.4-1.8-0.1-2.4c2-3.8,0.3-7.8,1.2-12.2c0.3-0.3,1.1-0.9,2-1.5c-1.9-2.5-1.8-5.4-1.1-7.6
				c0.8-2.1,0.6-4.1,0.8-6.2c0.4-3.9,0.8-7.7,1-11.6c0.2-3.8-0.6-7.8,0.2-11.5c0.7-3.2,0.7-6.4,0.8-9.6c2.1-0.2,2.1-0.2,1.5-2
				c-0.5,0-1,0-1.5,0c1.6-6.8,0.8-13.7,1-20.5c0.1-1.2,0.6-2.4,0.9-3.9c-0.2-0.3-0.6-0.8-0.7-0.9c0.3-2.7,0.6-5,0.9-7.4
				c2.7-2-1.5-4.1,0.1-6.1c1.7-2.1-0.2-4.9,1.1-7c1.3-2.2,0-4.5,1-6.9c0.2-0.1,0.8-0.3,1.8-0.6c-0.6-1.4-1.2-2.7-1.9-4.3
				c0.6-0.1,1.2-0.1,1.8-0.3c0.6-0.2,1.1-0.6,1.6-1c-0.3-1.6-0.5-3-0.8-4.4c2.2-1.7,4.2-3.3,5.9-4.6c-0.3-1.2-0.5-2.1-0.8-3
				c0.3-0.4,0.6-0.9,1-1.3c0.6-0.5,1.2-0.8,1.5-0.9c0.6-2.1,1.2-3.9,1.7-5.6c1,0.4,1.7,0.7,2.8,1.1c0-1.7,0-3,0-4
				c1.3,0.4,2.3,0.7,3.7,1c1.3-1.5,2.5-3,3.5-4.2c3.5-0.4,6.5-1.2,9.5-1c3.1,0.2,6.1,1.2,8.9,1.9c0.6,2.3,1.8,3.5,3.9,4.1
				c1.1,0.3,2.3,1.2,3,2.2c0.8,1.1,1.2,2.5,1.7,3.7c0.6-0.3,1.1-0.6,1.6-1c0,110.7,0,221.3,0,332c-324,0-648,0-972,0
				c0-0.7,0-1.3,0-2c4-0.3,9.5-2.4,13.1-4.5c1.7-1,3.6-1.7,5.5-2.4c0.4-0.2,0.9-0.2,1.3-0.3c0.1-0.9,0.1-1.7,0.2-1.9
				c2.3-2.1,4.1-3.8,5.9-5.6c0.9-0.9,1.6-2,2.3-3c0.6-1.1,0.8-2.3,1.5-3.4c2-3.3,3-7.1,4.2-10.7c1.1-3.4,2-6.8,3.6-9.1
				c2.9-1.5,5-2.7,6.9-3.7c3.4,1.6,7,0,10.2,1.1c4.4,1.8,7.2,6.2,12.2,6.9c0.2,0.6,0.4,1.2,0.5,1.6c3.9,0.5,7.5,0.9,10.9,1.4
				c0.9-0.9,1.5-1.5,2.2-2.2c1.3,0,2.7,0,4,0c0.8-0.8,1.4-1.3,1.9-1.9c0.8,0,1.6-0.1,2.1-0.1c1.5-1.5,2.8-2.9,4.1-4.1
				c2.2-2.1,3.3-5,4.2-7.7c0.5-1.6,0.3-3.4,0.9-5.1c0.7-1.7,0-4,0.2-5.9c0.1-1.7,0.9-3.4,0.9-5.1c0.1-4.2,0.3-8.3,0-12.5
				c-0.4-4.1,1.1-8,1.1-12.1c0-2,0.4-4,0.7-6.2c-0.2-0.2-0.5-0.6-0.5-0.6c1.7-6.6,0.2-13.1,0.8-18.4c5.2-9.3,10.2-17.6,17.5-24.2
				c3.6,0,7,0,10.5,0c0.2,0,0.3,0,0.5,0.1c0.2,0.2,0.4,0.5,0.7,0.7c3.6,2.6,7.5,5,8.8,9.8c2.4,1.1,2.9,3.9,4.7,5.3
				c1.3,1.1,2.4,2.2,2.2,3.6c-0.4,3.1,2.2,5.3,2.2,8.1c2.5,1.7,1.8,5.7,4.9,6.7c0,1.2,0,2.2,0,3.5c1.5,0.8,3.2,1.7,4.7,2.5
				c0.4,0.7,0.8,1.4,1.2,2c2.9,3.8,8.2,4,11.4,7.4c2.8,0.4,5.3,1.5,7.8,2.8c1.8,1,4.1-0.2,6,1.3c0.6,0.5,1.9,0.1,2.9,0.1
				c2.6,0,5.2-0.2,7.6,1c0.3,0.2,0.9-0.2,1.2-0.3c0.1-0.6,0.2-1.1,0.3-1.4c3.1,0.9,6,1.3,8.9,0.1c1.8-0.8,3.4-0.4,4.9,0.6
				c2-1.7,4.4-0.7,6.7-1.1c0.2-0.5,0.4-1.1,0.6-1.7c1.7-0.5,3.3-0.9,6.1-1.7c0.2-0.2,0.9-1.3,1.8-2.2c0.4-0.4,1.3-0.3,1.6-0.8
				c0.4-0.5,0-1.5,1.3-1.6c2.6-0.2,4.7-1.4,5.6-4.3c0.8,0.6,1.3,0.9,2.2,1.5c0.6-3.1,4.7-2.7,5.7-6c0.6-1.8,2.3-3.2,2.5-5.5
				c0.1-0.9,0.9-1.9,1.6-2.7c2.8-2.9,3.3-3.7,4.3-6.8c1.2-3.6,2-7.3,2.1-11.2c0.1-3.9,0.7-7.8,3-11.2c-0.4-0.6-0.8-1.1-1.2-1.7
				c1.8-2.7,0.3-6.7,3.3-9c-0.5-0.9-0.9-1.6-0.8-1.5c0.3-2.5,0.4-4.2,0.6-5.9c0.3-1.7,0.8-3.4,1-5.1c0.2-1.8-0.5-4.1,0.3-5.3
				c1.6-2.1-0.2-3.3-0.3-3.9c0.8-3.3,1.7-5.7,1.9-8.2c0.5-7,0.7-14,1.1-21.1c0-1.2-0.4-2.6,0.1-3.4c1.4-2.2,0.3-4.6,1-6.6
				c0.9-2.4,0.8-4.7,0.9-7.1c0-0.5-0.2-1.1,0-1.5c1.8-4.4,2.2-9,2-13.7c0-0.8-0.3-2.1,0-2.4c2.1-1.6,0.4-4,1.5-6
				c1-1.8,0.3-4.5,0.5-6.8c0.3-2.9,0.3-5.8,1.2-8.5c1.5-4.7,3.5-9.2,5.8-13.6c1.7-3.1,4.6-5.3,6.2-8.4c0.2-0.4,1.3-0.3,1.6-0.8
				c2.6-3.7,7.1-5,10.2-8.1c1.3-1.3,2.8-3,4.5-3.4c2.9-0.7,5.5-2.4,8.3-2.9c3-0.6,5.7-1.8,8.6-2.2c4.2-0.6,8.4-0.7,12.6-1.1
				c1,0,2,0,3,0c1,2.4,1.9,0.1,3.1,0c1.5,1.1,3.2,1.8,4.8-0.2c1.9,2.1,5.4,0,6.6,3.6c0.4-1,0.6-1.6,0.9-2.5c1.4,0.6,2.7,1.3,4.5,2.1
				c2.3-0.6,4.7,0.7,7,2c0,0.6,0,1.2,0,2.3c2.3-0.8,3.8-0.2,5.2,1.2c1.1,1.1,2.8,1.2,4,2.7c1,1.3,3.2,2.3,4.7,2.6
				c3.3,0.6,4.3,3,5.8,5.2c2.3-0.5,3.2,0.9,3.6,2.8c0.8,0.1,1.6,0.2,2.5,0.3c1.6,3.6,3.2,7.3,4.6,10.7c0.8,0.3,1.2,0.4,1.6,0.6
				c0,1.1,0,2.1,0,3.7c0.8,0.6,2,1.5,2.7,2.1c0.9,4.1,2.7,7.4,2.4,11.2c-0.1,1,1,2.9,2.7,3.1c0.2,2.1-0.1,4.4,0.7,6.3
				c1.2,2.9,1.7,5.8,1.5,8.6c0.7,0.7,1.3,1.3,2.1,2.1c0,1.3,0,2.7,0,4.1c0.8,0.3,1.3,0.5,2.1,0.7c-0.9,0.4-1.5,0.7-2,0.9
				c0,1.6,0,3.1,0,3.5c3.2,2.9,3.3,6.6,5.2,9.3c1.8,2.6,3,5.7,4.8,8.4c2,2.9,4.3,5.5,6.6,8.5c1-0.4,2.1-0.8,3.7-1.3
				c1,1.2,2,2.5,3.3,4c3.7,0,7.6,1.6,11.7,1.1c1.6-0.2,3.4-0.3,5,0c2.1,0.5,3.6-1.2,5.6-1.1c1.5-2.2,4.4-1.5,6.3-2.8
				c0.5-0.3,1.1-0.4,1.7-0.6c0-0.8,0-1.4,0-2.5c2.5,1,1.5-2,2.8-2.3c2.1-0.6,0.2-3.2,2.3-3.8c1.1-0.4,1.8-1.7,2.7-2.5
				c0.4-2.1,1-4.3,1.2-6.5c0.2-2.5,0-5,0-7.8c0.6-0.5,1.4-1,2.3-1.7c-0.4-0.7-0.7-1.3-0.9-1.5c0.7-5.2,3.1-10.2,0.3-15.8
				c0.8-0.5,1.6-1,2.6-1.7c-0.4-0.8-0.7-1.3-1-1.7c0.4-2,0.9-3.9,1.2-5.8c0.3-2.2,0-4.6,0.8-6.6C864.3,376.1,863.7,374.1,864,372z"
				/>
			<path class="st1" d="M334,189c0,1.3,0,2.7,0,4c-0.6,0-1.2,0-2,0c0,3.8,0,7.3,0,10.7c0,0.4,0.6,0.9,1,1.3c0,1,0,2,0,3
				c0,1.6,0.5,3.5-0.1,4.9c-1.6,3.6-0.5,7.3-0.9,10.9c0,0.4,0.6,0.8,1,1.3c0,1,0,2,0,3c-0.3,0.4-1,0.9-1,1.3
				c-0.1,6.3-0.1,12.6,0,18.9c0,1,0.6,2.1,0.9,3c-0.3,0.8-0.9,1.5-0.9,2.2c-0.1,5.1-0.3,10.3,0.1,15.4c0.1,1.4-0.7,3.1,0.2,4
				c2,2-0.7,3.2-0.3,4.8c0.1,0.4,0.6,0.7,0.7,0.8c-0.8,1.7-1.4,3.2-2.2,4.9c1,0.7,1.8,1.3,2.4,1.7c-0.8,2.1-1.4,3.8-2,5.5
				c0.4,0.2,0.7,0.4,1,0.5c0.4,0.2,0.7,0.3,1.2,0.5c-1,1-1.8,1.8,0,2.5c-0.3,1.3-0.5,2.7-0.8,4.3c1.3,1.5,0.7,3.7,0.8,5.7
				c-0.3,0.4-0.9,0.8-1,1.2c-0.1,1.9,0,3.9,0,5.8c0,0.7,0,1.3,0,2c-0.3,1-0.6,2.1-1,3.1c2,2.8,0.4,6,1,9c0.7,3-0.1,5.6-1.1,8.2
				c0.4,0.5,0.7,1,1.2,1.7c-0.4,0.5-0.8,1-1.3,1.7c0.7,3.6-1,7.6,1,11.3c0.4,0.7,0,1.9-0.3,2.8c-1.1,3.2-1.1,6.3,0.4,9.3
				c-0.5,1.3-2.5,2.6,0,3.9c0,1,0,2,0,3c-0.3,0.3-1,0.7-1,0.7c1.3,2.5,1.2,5,0,7.6c-0.3,0.6-1,2.4,0.9,2.7c0,0.7,0,1.3,0,2
				c-0.4,0.5-0.8,1-1.6,2c1.4,0,2,0,2.6,0c0,0.3,0,0.7,0,1c-1.8,0.5-2.1,1.8-2,3.5c0.6,0.7,1.3,1.4,2.2,2.3
				c-0.8,0.6-1.6,1.2-2.2,1.6c0,2.3,0,4.3,0,6.3s0,4,0,6s0,4,0,6c0,2.2,0,4.3,0,6.5c0.1,1.9-0.5,3.8,0.8,5.5
				c-1.6,1.7-0.7,3.8-0.8,5.7c-0.1,3,0,6-0.1,9c-0.1,1.4-0.5,2.7-0.9,4.2c1.3,0.8,0.8,2.2,0.9,3.5c1.4,3.6,1,7.4,1,11.1
				c0,0.7-0.5,1.4-0.7,2.2c-0.4,1.9-0.7,3.8,0.4,5.1c-0.3,2.1-0.6,3.8-0.6,5.5c-0.1,9.8,0,19.7-0.1,29.5c0,1.5-0.4,3.1-0.6,5
				c0.2,1,0.4,2.3,0.7,3.7c-0.3,0.3-0.7,0.5-1,0.8c0.3,0.4,0.7,0.8,1,1.2c0,0.7,0,1.3,0,2c-1.5,0.1-0.9,1.2-1,2c0,0.7,0,1.3,0,2
				c0,2,0,4,0,6c0,0.7,0,1.3,0,2c0,5.7,0,11.3,0,17c0,0.7,0,1.3,0,2c0,4.8,0,9.5,0,14.3c0,0.7-0.4,1.7,1,1.8
				c-0.5,1.1-1.1,2.2-1.1,3.6c0.2,3.8,0,7.7,0.1,11.5c0,0.3,0.2,0.6,0.4,0.8c0.5,0.1,1.1,0.3,2.1,0.6c-1.2,0.4-1.8,0.6-2.4,0.9
				c0,3.4,0,6.8,0,10.3c1.7,2.5,3.3,5,3.9,7.8c-0.4,0.5-0.8,1-0.9,1.2c1.9,6.8,3.1,13.4,6.1,18.8c1.2,0.9,2.1,1.5,2.9,2.1
				c0,1.9,0,3.5,0,5.2c1,3.4,5.6,3.7,6.3,7.2c4.2,0.6,7.5,4.6,11.7,3.2c2.6,1.9,5,2.9,7.8,3c3.9,0.2,7.8-0.6,11.6,0.9
				c1,0.4,2.5,0.6,3.7-0.5c0.6-0.5,1.8-0.3,2.8-0.4c0,0.7,0,1.3,0,2c-128.3,0-256.7,0-385,0c0-130.3,0-260.7,0-391
				c1.3,0.3,2.7,0.9,4,0.9c1.1,0,2.3-0.8,3.2-1.1c1.1,1.4,1.8,2.7,2.9,3.4c1.6,1,0,3.3,1.9,3.8c-0.3,1.5,0.7,3.3-0.9,4.6
				c0.6,0.6,1.2,1.2,2,2c-0.3,3.8,0.1,7.7,1.6,11.4c0.5,0.1,0.9,0.3,1.4,0.4c0,3.5,0.6,6.8,2.2,9.7c1.6,3,1.9,6.2,3,9.3
				c0.6,1.7,2.4,2.3,3.1,4.2c0.6,1.4,2.9,2.1,4,2.7c1.1,1.3,1.9,2.2,2.6,3c1-0.6,1.7-0.9,2.3-1.3c0.7,0.4,1.2,0.8,1.3,0.8
				c1.9-0.3,3.5-0.5,5-0.7c4.5-0.7,9.2-0.6,12.6-4.1c0.9,0.5,1.5,0.9,2.6,1.6c0.5-0.7,0.9-1.6,1.5-2c0.6-0.4,1.8,0,2.2-0.5
				c1.1-1.2,3.6-0.8,3.5-2.8c0-1.6,1.2-2.2,1.7-3.3c0.5-1.2,2.1-1.7,2.3-2.4c1-4.4,4.3-8.2,3.2-12.6c0.9-1.2,1.5-2,1.9-2.8
				c1.1-2.3,2.3-4.4,4.9-5.4c1.2-0.5,2.1-1.7,3.1-2.5c3.3-0.2,5.9,1.8,8.8,3.4c0,0.8,0,1.7,0,3.3c0.6,0.3,1.5,0.7,2.5,1.1
				c-1.2,3.4,2.5,6.1-0.3,9c0,0.2-0.1,0.4,0,0.5c0.3,0.5,0.7,1,1.2,1.7c-0.4,0.5-0.7,1-1.1,1.5c1.3,0.9,0.8,2.2,0.9,3.5
				c-2.1,3.6-2.5,7.5-1.4,11.1c0.3,0.9,0.3,1.9,0.4,2.8c0,0.3-0.2,0.6-0.3,0.9c-0.6,0.2-1.2,0.4-2.2,0.8c0.8,1.6,1.6,2.9,2.3,4.2
				c-0.2,1.2-0.4,2.7-0.8,4c-0.5,1.5-1.9,3.5-0.8,4.5c1.5,1.5-0.9,2.4,0.1,3.7c0.8,1.1,0.7,3,1,4.6c-0.2,0.2-0.5,0.4-0.7,0.5
				c1,1,2,2,2.8,2.8c-0.2,0.1-0.8,0.3-1.3,0.5c-0.2,2.8,0.6,5.6-1.7,8.8c0.9,0.4,1.8,0.8,2.4,1.1c-0.4,1-0.7,1.6-0.9,2.3
				c0.9,0.3,1.5,0.5,1.9,0.7c-2.2,4.7,1.7,7.9,2.4,11.5c0.8,0.3,1.3,0.5,1.7,0.6c-0.4,0.8-0.7,1.4-1.1,2c2.4,2.2,4.2,4.8,7.3,5.7
				c0.6,0.2,1.1,0.6,1.5,1.1c3.1,3.2,3.7,3.7,6.8,4.9c0.3-0.3,0.7-0.7,1.3-1.2c0.6,0.8,1.2,1.5,1.4,1.8c2.2,0.5,3.7,0.9,5.3,1.3
				c2.1-2,4.9-0.2,6.5-0.8c2.1-1.3,3.4-2.2,4.5-2.9c1.1,0.7,2.1,1.4,3.6,2.4c0-2,0-3.2,0-4.5c3.8-0.3,5-3.4,7.2-5.3
				c-0.5-0.6-0.9-1-1.2-1.3c0.6-0.7,1.3-1.4,2-2.1c0-1.7,0-3.3,0-4.5c1.7-3.5,3.1-6.5,4.9-10.2c0.3-1,0.9-2.6,1.1-4.3
				c0.4-6,0.7-12,1-18.1c0.1-1.8-0.3-3.7,0.1-5.5c0.3-1.5,1.9-2.8,0-4.2c1.3-1.3,0.9-3,0.8-4.5c-0.1-1-0.6-2.1-0.8-2.8
				c0.6-3,1.1-5.7,1.6-8.6c-0.2-0.7-0.8-1.6-0.7-2.5c0.1-2.8-0.2-5.7,0.6-8.2c0.7-1.9-0.6-3-0.7-4.4c-0.2-1.6,2.2-2.7,0.7-4.4
				c-0.1-0.1-0.3-0.2-0.3-0.4c-0.1-0.6-0.5-1.3-0.3-1.9c1.8-5.6,2.2-11.4,1.9-17.2c-0.1-2.5,2.2-5,0.3-7.6c1.7-2.9-0.1-6.2,1.1-9
				c1.3-3.1,0.5-6.2,0.6-9.2c0.2-5,0-10,0.1-15c0-1,0.6-2.1,1-3.4c-1.9-1.3-1.5-3.6-0.8-5.1c0.8-1.5,0.6-2.8,0.7-4.2
				c0.1-1.6,0-3.3,0-4.1c1.9-1.9,3.3-3.3,5.3-5.3c2.9-1,6.7-2.2,10.6-3.5c0.2-0.4,0.5-1,0.9-1.8c3.3,2.5,6.1,4.8,8.8,6.8
				c0.5,1.3,0.9,2.4,1.4,3.6c0,0.3,0,0.7,0,1c-0.3,0.3-1,0.7-0.9,0.7c0.6,1.1,0.4,2.8,1.9,3.3c-0.1,1.3,0.4,2.7-1,3.6
				c0.4,1,1.1,2.1,1,3.1c-0.7,10.6,1.5,21,1.1,31.5c-0.1,3,0.1,6-0.1,9c-0.2,3.9,1.5,7.6,1.1,11.6c-0.4,3.8-0.8,7.8,0.1,11.4
				c1.5,6.5,0.4,13.1,0.9,19.6c0.1,1.4,0.4,2.7,0.7,4.5c-0.9,1.8-1.5,4,0.2,6.3c-0.3,1.1-1,2.3-0.9,3.5c0.1,3.7-0.8,7.5,0.9,11.1
				c0.3,0.6-0.4,1.7-0.8,3c1.3,1.6,1.5,3.6-0.1,5.7c0.3,0.9,1.2,1.9,0.9,2.5c-1.8,4.5-0.6,9.1-0.9,13.6c-0.1,2.5,0,5-0.1,7.5
				c-0.1,1.7,0.4,3.5-0.9,5.2c-0.4,0.5,0.3,2,0.7,3.6c-0.6,1.4-1.4,3.4-0.3,5.8c0.6,1.2,0.9,3.1,0.4,4.2c-1.2,2.9-1.3,5.4,0.1,8.2
				c0.4,0.8,0.1,2,0.1,3c0,7.8,0,15.6,0,23.5c0,4.2-0.4,8.4,0.1,12.5c0.6,4.6,1.8,9.2,3,13.7c1,3.6,3.3,7,6.9,8.8
				c4.7,2.3,9.4,4.5,14.2,6.7c0.4,0.2,0.9,0.3,1.4,0.3c3.1,0.2,5.9-0.7,8.7-1.8c6.1-2.3,9.8-7.2,13.6-12.1c2.2-2.8,3.4-6.2,4.9-9.5
				c1.6-3.5,3.1-7.1,4-10.8c0.9-3.9,1.1-8,1.1-12C244,317.2,244,242.6,244,168c0-5.7,0-11.3,0-17c0.6,0,1.2,0,2.2,0
				c-0.4-1.2-0.7-2-1-2.8c0.5-0.1,0.9-0.2,1.6-0.3c0.3-1.4,0.4-3,1.8-4.1c0.4-0.3,0.3-1.2,0.4-1.8c0-1,0-2,0-3
				c1.2-1.2,2.4-2.4,3.8-3.8c0.8-2.1,1.7-4.6,2.6-6.9c0.6-0.5,1.1-0.9,1.6-1.4c0-0.3,0-0.7,0-1c1.3-0.7,2.6-1.4,4-2.1
				c0-1.4,0-2.6,0-3.9c1.5-1.1,4-0.6,4.6-3c2.4-0.3,3-2.9,5.5-4c0.3,0,1.2,0,2.2,0c0.6-0.9,1.1-1.8,1.6-2.6c1.9-1.2,4.1,0.5,5.7-1.4
				c0.3-0.4,1.8-0.4,2.4,0c2.7,1.8,5.7,0.8,8.5,0.9c3.8,0.2,3.8,0.1,8.1,3c0.7,0.5,1.7,0.7,2.5,1c0.6-0.4,1.3-0.8,2.3-1.4
				c0.6,1.2,1,2.2,1.6,3c0.7,0.9,1.5,1.8,2.9,1.4c0.2,1.8,1.8,0.6,2.6,1.1c1,0.6,1.4,2.2,3,1.9c0.1,0,0.3,0,0.5,0
				c1,2.6,2.5,4.7,5.1,6c0,0,2.9,4.4,2.9,4.4c1.4,1.8,2,4.5,5,4.8c0.2,3.2-0.7,6.6,1.7,8.9c0.5,3,1,5.8,1.5,8.6
				c0.5,0.1,0.9,0.2,1.4,0.3c0.1,0.3,0.3,0.6,0.4,0.8c0.3,2.7-0.7,5.5,1,8.1c0.5,0.7,0.5,2.2,0,2.9c-1.4,2.3-0.8,4.7-0.9,7.1
				c-0.4,0.8-0.8,1.5-1.2,2.4c0.8,0.6,1.5,1.1,2.2,1.6c0,0.7,0,1.3,0,2c-1.4,1.9-1.4,4.1,0,6c0,0.7,0,1.3,0,2c-0.6,0-1.2,0-2.1,0
				c0.1,1.3,0.2,2.1,0.3,3C333,189,333.5,189,334,189z"/>
			<path class="st2" d="M1367,302c-0.5,0.3-1.1,0.6-1.6,1c-0.6-1.2-0.9-2.6-1.7-3.7c-0.7-1-1.9-1.8-3-2.2c-2.1-0.6-3.3-1.8-3.9-4.1
				c-2.9-0.6-5.9-1.7-8.9-1.9c-3-0.2-6,0.6-9.5,1c-1,1.2-2.3,2.7-3.5,4.2c-1.4-0.4-2.4-0.7-3.7-1c0,1.1,0,2.3,0,4
				c-1.1-0.5-1.8-0.7-2.8-1.1c-0.5,1.7-1.1,3.5-1.7,5.6c-0.3,0.2-0.9,0.5-1.5,0.9c-0.4,0.3-0.7,0.8-1,1.3c-0.2-0.4-0.4-0.8-0.8-1.6
				c0.1-0.1,0.5-0.4,0.5-0.7c-0.6-3,2-4.8,2.7-7.4c0.6-2.1,1.8-4.5,4.3-5.6c0.3-0.1,0.2-0.9,0.4-1.3c1.1-2.4,2.7-4.2,5.6-4.5
				c1-0.1,2.3-0.5,2.9-1.2c1.2-1.3,2.5-1.7,4.3-1.9c1.8-0.2,2.9-2.3,5-2.3c1.1,0,2.4-0.9,3.2-0.5c2.9,1.3,6.1-1.6,8.7,0.9
				c2.3-1,2.3-1,6.2,0C1367,287.3,1367,294.7,1367,302z"/>
			<ellipse class="st2" cx="388" cy="633" rx="2.8" ry="1.4"/>
			<ellipse class="st3" cx="391.5" cy="633" rx="2.1" ry="1.4"/>
			<circle class="st2" cx="394" cy="633" r="1.4"/>
			<path class="st4" d="M395,632c-0.7,0-1.3,0-2,0c-1,0-2,0-3,0c-1.3,0-2.7,0-4,0c-1,0.1-2.2-0.1-2.8,0.4c-1.3,1.1-2.8,0.9-3.7,0.5
				c-3.8-1.5-7.7-0.7-11.6-0.9c-2.8-0.1-5.2-1.1-7.8-3c-4.2,1.4-7.5-2.6-11.7-3.2c-0.8-3.4-5.3-3.8-6.3-7.2c0-1.6,0-3.3,0-5.2
				c-0.8-0.6-1.7-1.2-2.9-2.1c-3-5.4-4.2-12-6.1-18.8c0.1-0.2,0.5-0.7,0.9-1.2c-0.6-2.9-2.1-5.3-3.9-7.8c0-3.4,0-6.8,0-10.3
				c0.7-0.3,1.3-0.5,2.4-0.9c-1.1-0.3-1.6-0.4-2.1-0.6c-0.1-0.3-0.4-0.5-0.4-0.8c0-3.8,0.1-7.7-0.1-11.5c-0.1-1.4,0.5-2.4,1.1-3.6
				c0.3-0.3,1-0.5,1-0.8c0.1-4.2-0.3-8.4,1-12.5c0.3-0.8-0.1-1.8-0.1-2.7c-1.2,0-2,0-2.8,0c0-0.7,0-1.3,0-2c0.5,0,1,0,1.2,0
				c1-1.4,1.9-2.7,2.8-4c0.6,4.2,1.7,8.2,2.9,12.3c1.6,5.2,3.1,10.4,5.3,15.3c2.9,6.3,6.4,12.4,12,17.1c-0.4,0.7-0.7,1.2-1,1.9
				c0,0.1,0.1,0.4,0.3,0.5c1.6,0.5,3.3,0.8,3.7,2.8c1.4,0,1.6,1.9,2.1,1.9c2.4,0.1,3.9,1.8,6.1,2.3c2.1,0.5,4,1.5,4.8,3.7
				c1-0.3,2-0.6,3.2-1c0.6,0.9,1.1,1.8,1.6,2.6c2.3-0.5,4.1-0.9,6.4-1.4c0.6,0.8,1.4,1.8,2.2,2.9c2,0.3,4.4,0.6,7,0.9
				c0.2-0.3,0.5-1,1-2c0.6,0.7,1.2,1.2,1.9,1.9c2-0.8,4.4-1.7,7-2.8c0.2,0.5,0.5,1.1,0.7,1.6c2.1-0.2,4.3-0.5,6.7-0.8
				c-0.3-0.7-0.6-1.3-1.1-2.2c1.8-0.9,3.3-0.9,5.5,1c-0.6-1.7-0.9-2.6-1.3-3.6c0.5-2,2.3-1.8,3.7-2.1c0.2-0.6,0.4-1.2,0.6-1.8
				c0.4,0,0.8,0,1.3,0c0.2,1,0.4,2,0.6,3c0.6,0,0.9,0,1.2,0c1.9-2-1.6-3.5,0-5.9c1.5-0.6,3.7-1.4,5.8-2.2c0.4,0.4,0.8,0.7,1.2,1.1
				c0.2-0.6,0.4-1.2,0.6-1.9c1.7,0,3.5,0,5.2,0c0.5-0.9,0.9-1.6,1.6-2.9c0.8,1.3,1.2,2,1.8,3.2c1.1-1.3,2-2.4,3.3-3.8
				c0.5,0.9,0.9,1.6,1.5,2.6c3.1-2.7,5.8-0.7,8.8,1c0.7-1.5,1.4-2.9,2.1-4.3c1,0,2,0,3,0c0.9,2.1,3.2,2.6,4.7,4
				c1.9,1.8,4.5,0.2,6.6,1.8c0.5-0.6,1-1.5,1.5-2c3.6-2.1,7.1-4.2,10.8-6.3c0-1.2,0-2.6,0-4.2c1-0.6,2-1.2,2.8-1.7
				c-0.3-1.8-0.8-3.7-0.7-5.5c0.2-1.8,1.1-3.5,1.8-5.5c-0.2-0.3-0.6-0.8-1-1.4c2.1-3.6,2.5-7.7,2-12c1.2-0.1,2-0.2,3-0.3
				c-0.3-0.7-0.6-1.3-0.8-1.9s0-1.3,0-2c0.2-0.3,0.5-0.8,0.7-0.8c0.6,0.2,1.3,0.6,2.2,1.1c0-1.6,0-2.7,0-3.8
				c-0.6-0.8-1.2-1.6-1.8-2.5c2.2-1,1.3-3.4,0.8-4.2c-1.1-1.9-0.8-3.1,0.1-4.8c0.4-0.6,0.1-1.6,0.1-2.5c1.5-2.2,5.9-2.2,5-6.2
				c0.8-0.3,1.4-0.5,1.8-0.7c0.9-3.1-1-6.4,1.2-9.2c-1.7-1.7-1.2-3.1,0.5-4.5c0.1-0.1,0.3-0.1,0.8-0.2c0.3,0.2,0.8,0.6,1.4,1
				c0.7-0.8,1.5-1.7,2.4-2.7c0-0.6,0-1.6,0-2.8c0.8-0.6,1.7-1.2,2.9-2c0-0.7,0-1.8,0-3c0.6-0.1,1.1-0.5,1.5-0.3
				c1.1,0.5,2.2,1.1,3.5,1.8c0.1-1,0.2-2.3,0.3-3.6c0.5-0.1,1-0.2,1.6-0.3c0.1-0.8,0.3-1.7,0.5-3c0.9,0.4,1.7,0.7,3,1.3
				c1.6-1.2,3.5-2.5,5.4-3.9c1.8-0.4,3.8-1.5,5.4-1c1.8,0.6,3.4,0.7,4.5,0.8c2.3,1.2,4.1,2.1,5.9,3c1-1.6,2.7-0.7,4.1-1
				c0.2,0.7,0.4,1.2,0.7,2c0.9,0,1.9,0,2.8,0c1.5,1.3,3,2.5,4.7,3.9c0.3,0.9,0.8,2.1,1.5,3.8c0.6-1.2,0.9-1.9,1.5-3
				c0.8,1.1,1.2,1.9,1.9,2.6c0.7,0.7,1.5,1.4,2.3,1.9c2,1.4,2.7,4.4,5.8,4.4c0.5,0,1,1.4,1.6,2.2c3.2-1.5,6.8-0.3,10.3-0.8
				c0.2,1.1,0.3,2.1,0.5,3.5c0.9-1.8,1.5-3.1,2.3-4.6c0.8,0.5,1.6,1,2.4,1.6c-0.4,0.5-0.7,0.8-1.1,1.2c0.4,0.2,0.8,0.4,1.2,0.5
				c0.3-0.2,0.8-0.4,0.8-0.6c-0.3-2,0.6-3,2.8-3.8c0.2,1.1,0.3,2,0.4,2.9c2.4,1.7,3.3-1.2,5.3-2c0.3,0.8,0.6,1.5,0.9,2.2
				c0.7,0,1.5,0,2.3,0c0.3-0.6,0.5-1.2,0.8-1.9c1.3,0.4,2.6,0.8,4,1.2c0.2-0.6,0.5-1,0.5-1.4c0.1-1.5-0.3-3.1,2-3.8
				c0.8,0.3,1.9,0.7,3,1.1c2.2-1,3-4,5.8-3.1c0.2-1.1,0.3-2,0.5-3c1.4,0.4,2.6,0.7,3.8,1c0,0-0.1,0.1-0.2,0.1
				c0.2,0.3,0.5,0.5,0.7,0.8c0.1-0.1,0.2-0.2,0.3-0.3c-0.3-0.2-0.5-0.5-0.9-0.6c0.4-0.9,0.9-1.9,1.4-2.9c0.6,0,1.3,0,1.9,0
				c1.2-1.9,2.1-4,4.9-4.2c-0.9-1-1.5-1.6-2.5-2.7c1.1-0.1,1.9-0.1,2.8-0.2c0.3-0.6,0.6-1.3,1.1-2.2c0.7,0.4,1.4,0.7,2.2,1.2
				c0.1-0.6,0.4-1.4,0.2-1.8c-1.4-2.5-1.2-4.8,0.4-7.1c0.8-0.1,1.5-0.2,2.5-0.3c0-1.8,0-3.6,0-5.5c-0.4-0.1-1-0.4-1.6-0.6
				c0-1.9,0-3.8,0-6.4c0.6,1.3,0.9,2,1.3,2.7c0.5-1,1-2,1.6-3c-0.3-0.6-0.7-1.3-1.2-2.1c0.3-0.5,0.7-1,1.3-1.7
				c-0.7-0.5-1.5-1.1-1.9-1.4c0.4-2.8,0.7-5.1,1.1-8c0.9,1.2,1.6,2.1,2.4,3.2c0.3-1.9,0.5-3.7,0.8-5.7c-0.5-0.3-1.5-0.9-2.5-1.4
				c-0.3-3.3,2.3-4.8,3.9-6.8c0,0,0.1,0.1,0.1,0.1c0.3-0.2,0.5-0.5,0.8-0.7c-0.1-0.1-0.2-0.2-0.3-0.3c-0.2,0.3-0.5,0.5-0.6,0.9
				c-0.7-0.6-1.5-1.3-2.4-2.1c1.8-0.8,3.2-1.4,4.5-2c-1.1-1-1.9-1.8-2.7-2.5c-0.5,0.2-1.3,0.5-2.2,0.8c-0.5-2.8,1.7-2.7,2.8-3.6
				c-0.3-0.4-0.6-0.7-1.2-1.3c1.3-1.5,1-4.4,4.2-4.4c0-2.6,0-5.1,0-7.4c0.8-0.8,1.3-1.4,1.9-1.9c0-6.9,2.5-13.4,3.3-20.3
				c1.2-1.3,1.6-3,1.9-5c0.3-2.4,1.3-4.8,2.2-7c1.4-3.4,3.1-6.7,4.7-10c1.5-3.2,3.3-6.1,5.9-8.5c2.2-2.1,4.2-4.2,6.4-6.3
				c1.8-1.7,3.6-3.5,4.9-5.4c2.1-3,5-4.5,7.8-6.4c1-0.7,1.8-1.8,2.8-2.8c0.8,0.6,1.2,0.9,1.4,1.1c1-0.9,1.9-2.1,3-2.7
				c4.3-2.4,8.8-4.5,13.4-6.9c4.5-0.2,9.3-1.7,14.2-1.1c2.2-1.5,4.7-1,7.1-1c1,0,2,0.6,3.1,1c0,0.6,0,1.2,0,1.8
				c0.6,0.1,1,0.3,1.2,0.2c0.3-0.2,0.5-0.6,0.8-1c0.9,0.1,2.1-0.4,2,1.2c0,0.3,0.6,0.5,1,0.8c0,0.3,0,0.7,0,1
				c-4.2,0.3-8.4,0.5-12.6,1.1c-2.9,0.4-5.7,1.6-8.6,2.2c-2.7,0.5-5.3,2.2-8.3,2.9c-1.7,0.4-3.2,2.1-4.5,3.4
				c-3.1,3.1-7.6,4.3-10.2,8.1c-0.3,0.4-1.4,0.3-1.6,0.8c-1.6,3.1-4.5,5.3-6.2,8.4c-2.3,4.4-4.3,8.9-5.8,13.6
				c-0.8,2.7-0.9,5.6-1.2,8.5c-0.2,2.3,0.5,5-0.5,6.8c-1.1,2,0.6,4.4-1.5,6c-0.4,0.3-0.1,1.6,0,2.4c0.2,4.7-0.2,9.3-2,13.7
				c-0.2,0.4,0,1,0,1.5c0,2.4,0,4.7-0.9,7.1c-0.8,2,0.3,4.4-1,6.6c-0.5,0.8,0,2.3-0.1,3.4c-0.3,7-0.5,14.1-1.1,21.1
				c-0.2,2.4-1.1,4.8-1.9,8.2c0.1,0.6,1.8,1.8,0.3,3.9c-0.9,1.2-0.2,3.5-0.3,5.3c-0.2,1.7-0.7,3.4-1,5.1c-0.3,1.7-0.4,3.4-0.6,5.9
				c-0.1-0.1,0.3,0.5,0.8,1.5c-3,2.3-1.4,6.2-3.3,9c0.4,0.6,0.8,1.1,1.2,1.7c-2.3,3.4-2.9,7.3-3,11.2c-0.1,3.9-0.9,7.5-2.1,11.2
				c-1,3.1-1.5,3.9-4.3,6.8c-0.7,0.8-1.6,1.7-1.6,2.7c-0.2,2.3-1.9,3.7-2.5,5.5c-1.1,3.3-5.1,2.8-5.7,6c-0.8-0.6-1.4-1-2.2-1.5
				c-0.9,3-3,4.1-5.6,4.3c-1.3,0.1-0.8,1.1-1.3,1.6c-0.4,0.4-1.2,0.4-1.6,0.8c-0.9,0.9-1.7,2-1.8,2.2c-2.8,0.8-4.4,1.2-6.1,1.7
				c-0.2,0.5-0.4,1.1-0.6,1.7c-2.3,0.4-4.7-0.6-6.7,1.1c-1.5-1.1-3.1-1.4-4.9-0.6c-2.9,1.2-5.9,0.8-8.9-0.1
				c-0.1,0.3-0.2,0.8-0.3,1.4c-0.3,0.1-0.9,0.4-1.2,0.3c-2.4-1.1-5-1-7.6-1c-1,0-2.3,0.4-2.9-0.1c-1.9-1.5-4.2-0.3-6-1.3
				c-2.5-1.3-5-2.4-7.8-2.8c-3.2-3.4-8.5-3.6-11.4-7.4c-0.5-0.6-0.8-1.3-1.2-2c-1.5-0.8-3.2-1.7-4.7-2.5c0-1.3,0-2.3,0-3.5
				c-3.1-1.1-2.4-5-4.9-6.7c0-2.9-2.6-5-2.2-8.1c0.2-1.4-0.9-2.5-2.2-3.6c-1.8-1.5-2.3-4.2-4.7-5.3c-1.3-4.7-5.2-7.1-8.8-9.8
				c-0.3-0.2-0.5-0.5-0.7-0.7c-0.2,0-0.3-0.1-0.5-0.1c-3.5,0-7,0-10.5,0c-7.3,6.6-12.3,14.9-17.5,24.2c-0.6,5.4,0.8,11.8-0.8,18.4
				c0,0,0.3,0.4,0.5,0.6c-0.2,2.1-0.7,4.1-0.7,6.2c0,4.1-1.5,7.9-1.1,12.1c0.4,4.1,0.2,8.3,0,12.5c-0.1,1.7-0.8,3.4-0.9,5.1
				c-0.2,2,0.5,4.2-0.2,5.9c-0.7,1.8-0.4,3.5-0.9,5.1c-0.9,2.8-2,5.6-4.2,7.7c-1.3,1.3-2.6,2.6-4.1,4.1c-0.5,0-1.3,0.1-2.1,0.1
				c-0.6,0.6-1.2,1.2-1.9,1.9c-1.3,0-2.7,0-4,0c-0.8,0.8-1.4,1.3-2.2,2.2c-3.4-0.4-7.1-0.9-10.9-1.4c-0.1-0.4-0.3-1-0.5-1.6
				c-5-0.7-7.8-5.1-12.2-6.9c-3.2-1.1-6.7,0.5-10.2-1.1c-1.9,1-4,2.2-6.9,3.7c-1.6,2.2-2.5,5.7-3.6,9.1c-1.2,3.7-2.2,7.4-4.2,10.7
				c-0.6,1-0.9,2.3-1.5,3.4c-0.6,1.1-1.4,2.2-2.3,3c-1.8,1.8-3.7,3.5-5.9,5.6c0,0.2-0.1,0.9-0.2,1.9c-0.4,0.1-0.9,0.1-1.3,0.3
				c-1.8,0.8-3.8,1.4-5.5,2.4C404.5,629.6,399,631.7,395,632z M453.1,577.9c-0.1,0.1-0.1,0.1-0.2,0.2c0.2,0.3,0.5,0.5,0.7,0.8
				c0.1-0.1,0.2-0.2,0.3-0.3c-0.3-0.2-0.5-0.5-3.3-1.8c0.7,0.8,0.9,1.1,1,1.1c0.5-0.1,0.9-0.3,1.4-0.4
				C452.4,577.4,451.8,577.2,453.1,577.9z M628,457.8c0-0.3,0-0.6,0-0.9c-0.7,0.1-1.3,0.3-2,0.4c0,0.2,0.1,0.4,0.1,0.6
				c0.6,0,1.3-0.1,1.8-1c0.1,0.1,0.1,0.1,0.2,0.2c0.3-0.2,0.5-0.5,0.8-0.7c-0.1-0.1-0.2-0.2-0.3-0.3
				C628.4,456.4,628.1,456.6,628,457.8z M422.8,585.9c0-1,0-1.9,0-2.8c-0.6,0-1.1,0-1.7,0c0,1,0,1.9,0,2.8
				C421.8,585.9,422.2,585.9,422.8,585.9z M625.7,469c-0.1,0-0.2,0-0.3,0c0,0.3,0,0.7,0,1c0.1,0,0.2,0,0.3,0
				C625.7,469.7,625.7,469.3,625.7,469z"/>
			<path class="st4" d="M1047,437c-0.3-0.3-0.7-0.7-1-1c2.1-2.9,2.1-2.9,1.5-3.4c-0.7-0.8-1.4-1.7-2-2.4c-0.4,0.5-1,1.2-1.5,1.9
				c-0.7-0.5-1.5-1.1-2.4-1.7c0.5-0.8,0.9-1.3,1.4-2c-1-0.8-2.2-1.7-3.3-2.6c1-2.3-1.2-3-1.9-4.4c0.3-0.6,0.6-1.2,1-1.9
				c-0.6-0.1-1-0.2-1.5-0.4c-0.1-0.3-0.4-0.5-0.4-0.8c-0.1-2.3,0.4-4.9-0.5-6.8c-1-2.1-0.1-4.3-1.4-6.4c-1.2-1.8-1-4.6-1.1-6.9
				c-0.2-2.3,0-4.6,0-7c0.7,0,1.3,0,2.2,0c4.4,2.5,4.3,8.1,7.8,11.6c0,0.8,0,1.8,0,3c1.6,1.4,3.3,2.8,5.1,4.4
				c-0.2,0.4-0.5,0.9-1,1.8c0.4,0.3,1,0.8,1.6,1.3c1-0.4,2-0.8,3.2-1.3c0,1.5,0,2.6,0,4c2.1,0.6,4,1.1,6,1.7
				c0.1,0.7,0.2,1.5,0.3,2.2c1,0.5,2,0.9,3,1.4c0.7-0.4,1.3-0.7,2.4-1.3c0.3,0.8,0.6,1.4,0.8,1.9c2.4-0.5,4.8-1,7.4-1.6
				c0.1,0.4,0.3,1,0.6,1.9c2.7-0.3,5.6,0.9,8.1-1.2c0.5,0.5,0.7,0.7,1.1,1.1c0.9-0.7,1.8-1.4,3.1-2.4c0.3,1.5,0.6,2.5,0.8,3.8
				c0.9-0.5,1.5-0.8,2.5-1.3c0.7,0.3,2.1,0.4,2.6,1.1c1.5,2,3.8,2.4,5.9,2.8c2.5,0.4,2.7,1.9,2.8,3.9c1.1,0,2.2,0,3.3,0
				c1.1,3.1,3.9,4.5,5.8,7c-0.3,0.9-0.6,2-1.1,3.3c0.5,0.9,1.1,2.1,1.9,3.7c0.3,2.5-0.6,5.4,0.9,8.2c0.4,0.7-0.6,2-0.9,3.3
				c0.7,0.7,1.4,1.5,2.2,2.4c-0.7,1.3-1.3,2.5-2,3.9c0.4,0.1,1,0.3,2,0.7c-0.6,2.5-1.2,5-1.9,8c0.8,1.7,1.6,4.1-0.1,6.4
				c0.7,2.3,1.3,4.6,1.9,6.8c-0.7,0.3-1.3,0.6-2.2,1c0.8,0.3,1.4,0.5,2.1,0.8c-0.2,1.1-1,2.9-0.6,3.2c1.6,1.3-0.8,1.8-0.4,2.9
				c0.4,1.2,0.1,2.6,0.1,4c0.7,0.7,1.3,1.4,2.1,2.2c-0.7,0.2-1.3,0.5-1.8,0.6c-1,2.3,0.6,3.9,1,5.6c0.8,0.2,1.2,0.3,2.3,0.6
				c-1.1,0.4-1.7,0.5-2.4,0.8c0,1.3,0,2.8,0,4.3c0.9,0.7,2,1.5,3.6,2.7c-1.3,0.5-2,0.8-2.6,1.1c0.3,2.5,0.7,4.9,1.1,7.6
				c0.3,0.1,0.8,0.2,1.5,0.3c0.2,1.4,0.8,3-0.8,4.3c1.5,1.2,0.7,3,1,4.3c0.8,0.2,1.2,0.3,1.7,0.5c0.5,2.6,1,5.3,1.7,8.7
				c0.2,0.2,1.2,0.8,2.2,1.5c-0.1,0.2-0.2,0.3-0.4,0.5c0.8,0.1,1.6,0.1,2.5,0.2c0.1,0.4,0.2,0.8,0.5,1.7c2.1,0.1,4.3,0.6,3.9,3.8
				c2.3,0.4,2.2,4.4,5.5,3.6c0.7-0.2,1.9,1,2.7,1.7c2.5,2,4.9,4.2,6.8,5.7c2.7,0.9,4.6,1.5,6.6,2.2c0.2-0.2,0.7-0.5,1.6-1.1
				c1.2,1.3,2.2,2.6,3.5,4.1c2.3-0.3,5.1-0.7,7.8-1c0.4,1,0.6,1.6,0.8,2.3c3-0.3,6.5,1,8.2-3c0.6,0.6,1.2,1.2,1.6,1.6
				c3.5-0.6,6.8-1.3,10.8-2c0.1-0.2,0.6-0.8,0.9-1.2c2.1-0.5,3.7-0.9,5.7-1.3c0.2,0.1,0.7,0.4,1.1,0.7c1-1.2,2.1-2.4,3.2-3.7
				c0.4,0,1,0,1.9,0c1-1.1,2-2.3,3.4-4c0,0,0.8-0.1,1.9-0.2c0-1.2,0-2.4,0-3.7c1.1-0.1,1.9-0.2,2.9-0.3c0-1.1,0-2.2,0-3.1
				c2.1-2.3,4.7-4,5.2-7.1c4.2-1.9,3.6-7,6.5-9.7c0.6-0.5,0.5-1.8,0.8-2.7c0.6-1.8,0.9-3.7,1.8-5.2c1.1-1.8,0.8-3.7,1-5.6
				c0.1-1,0.6-2.1,1-3.1c1.3-3.2,0.9-6.6,1-9.9c0.8-0.3,1.4-0.5,2.2-0.8c-0.4-0.9-0.8-1.8-1.3-2.8c0.3-0.4,0.7-0.9,1.2-1.5
				c0-1.4-1.8-2.4-0.8-4.3c0.6-1.1-0.8-3.2-0.2-4.2c0.9-1.6,0.7-3.1,0.9-4.7c0.2-1.5,0.6-3.1,0.9-4.7c-0.2-0.3-0.6-0.6-0.9-0.9
				c0.5-1.8,0.5-4,1.5-5.4c1-1.4-0.9-3.5,1.4-4.1c0,0.6,0,1.2,0,2c1.2,0,2.1,0,3,0c-0.3,1.4-1.3,3-0.8,4c0.6,1.4,0.8,2.7,0.8,4.1
				c0,6.8,0,13.6,0,20.5c0,1.3,0,2.6,0,4c0.6,0.2,1.2,0.4,2.3,0.8c-0.9,0.4-1.5,0.6-2.5,1.1c0.4,1.1,0.9,2.2,1.2,3.3
				c0.3,1,0.6,2.1,0.9,3.6c-0.1,0.1-0.5,0.6-1.1,1.4c3.3,3.5-0.7,8,0.7,11.7c-0.2,2.6-0.5,4.9-0.6,7.3c-0.1,2.4,0.2,4.8-1,7.1
				c1.2,2,1,3.9,0.2,6.2c-0.8,2.2-0.2,4.9-0.2,7.4c-2.5,2.2-2,5.3-2,8.1c-0.4,0.2-0.6,0.3-0.9,0.5s-0.6,0.2-1.1,0.3
				c0,1.4,0,2.8,0,3.6c-1.3,2.7-2.4,4.8-3.5,6.9c-0.5,0.2-1,0.3-1.6,0.5c0,0.8,0,1.5,0,2.1c-0.9,0.6-2.5,1-2.7,1.8
				c-0.7,2.8-3,4.4-4.5,6.5c-1.6,2.3-2.9,5.3-6.6,5.7c-1.8,0.2-3.8,1.7-5.1,3.1c-1.2,1.4-3.6,0.7-4,2.1c-0.7,2.4-2.9,1.6-4.2,2.1
				c-1.3,0.5-2.9,1.3-4.5,1.2c-1.2-0.1-2.1,0.6-3.1,0.9c-4.7,1.7-9.7,1-14.5,1c-0.7,0-1.3-0.7-2.2-1.3c-0.4,0.9-0.7,1.5-1.2,2.6
				c-1.1-0.7-2.1-1.4-3.2-2.3c-0.9,0-2,0-3.2,0c-0.3-0.3-0.5-0.9-0.8-1c-1.6-0.1-3.3,0-4.6,0c-5.4-3-11.8-4.9-16.6-5
				c-1.1,0-2.3,0-3.4,0c-0.5-1.8-2.1-2.3-3.6-3c-0.4-1.4-0.9-2.7-1.3-4.1c-1.4,0.4-2.5,0.7-3.7,1.1c0-0.3,0-0.7,0-1
				c-0.5-1.7-1-3.4-1.6-5.8c-0.7,0.9-1.1,1.3-1.4,1.8c-0.5,0.7-1,1.3-1.4,1.7c-1.1-1.6-2.5-3.2-3.3-5c-0.8-2-3-3.3-3.2-5
				c-0.2-2.4-4.3-2.6-1.9-5.4c-1.1-0.3-1.5-0.4-2.1-0.6c0-0.7,0-1.5,0-2.6c-1.4-0.1-2.6-0.2-4.1-0.3c0-2.5,0-5,0-7.6
				c-1.1-0.2-2-0.3-3.1-0.5c0.4-2.5,0.8-4.9,1.2-7.4c-0.3-0.1-0.5-0.2-0.8-0.2c-0.2,0.5-0.4,1.1-0.7,1.7c-0.4,0-0.8,0.1-1.3,0.1
				c-0.2-0.3-0.5-0.7-0.4-0.9c0.8-1.6,1.3-2.8,0.2-4.8c-0.8-1.3-0.9-3.9,1.2-5.3c-1-1.1-1.7-1.9-2.5-2.8c0.5-0.9,0.9-1.8,1.3-2.7
				c-0.9-0.4-1.5-0.7-2.4-1.2c0.8-0.3,1.3-0.5,2.1-0.7c-0.3-1.4-0.9-2.9-0.9-4.4c0-1.4,0.9-2.7,0.9-4.1c0-8.9,1.5-17.6,1.1-26.5
				c-0.4-8.8,0.1-17.6-0.1-26.5c-0.1-5.2-0.8-10.4-1.3-16c-0.4-0.6-1.2-1.6-2.4-3.2c-0.5-0.2-1.7-0.8-3-1.3
				c-1.6-0.6-3.2-1.7-4.8-1.6c-1.9,0-3.9,1-5.8,1.7c-1.8,0.7-3.5,1.5-5.5,1.2c-2.9-0.3-5.6,0.6-8,1.9c-1.9-0.7-3.6-1.5-5.4-1.8
				c-1.8-0.3-3.6-0.1-5.4-0.1c-0.6-0.6-1.2-1.2-1.9-1.9c-1.2,0-2.5,0-3.4,0c-3.3-2-6.2-3.8-9.1-5.5c-1-0.6-1.2-1.5-1.1-2.6
				c0.6,0,1.2,0,2.1,0c-0.1-1.3-0.2-2.1-0.3-3C1048.7,437,1047.8,437,1047,437z"/>
			<path class="st4" d="M993,461c0.3,1.7,0.7,3.3,1,5c-0.3,0.1-0.8,0.2-0.8,0.4c-0.5,1.9,0.4,4.2-1.2,5.9c0.3,0.3,0.7,0.5,1,0.8
				c-0.3,2.7,0.7,5.5-1,8.1c-0.2,0.4,0.1,1.3,0.4,1.8c1,2,0.9,4.1,0.1,6c-0.9,2-0.8,3.9,0.4,5.9c-0.5,0.1-1,0.2-1.7,0.3
				c0,1.6,0,3.4,0,4.7c-2.6,4.1-4.7,7.9-5.5,12.1c-0.7,0.1-1.2,0.2-1.7,0.3c0,0.8,0,1.4,0,2c-0.7,0.6-1.8,1-2,1.7
				c-0.8,2.6-3.1,3.9-4.5,6c-1.2,1.7-3.7,0.8-5.2,2.1c-0.2,0.6-0.2,1.3-0.6,1.7c-1.3,1.2-2.6,2.7-4.2,3.1c-3,0.8-5.8,2.2-8.7,3.1
				c-2.5,0.7-5.2,0.7-7.8,0.6c-2.6-0.1-5.3-0.7-8.5-1.2c-0.9,0.2-2.4,0.6-4,1c-0.7-0.9-1.3-1.7-1.8-2.3c-1.1,0-2,0-2.8,0
				c0-0.6,0-1.2,0-2c-1.2,0-2.1,0-3,0c-1.8-0.3-3.7-0.7-5.4-1c-0.7-1-1.2-2.6-1.9-2.7c-3-0.4-4.8-2.8-7.5-3.7
				c-2.3-0.8-4.3-3.6-6.3-7.2c-1.4-2.5-3-4.8-4.6-7.3c1.3-2.1-1.3-4.4,0.1-6.6c-1.1-0.4-1.7-0.6-2.5-0.9c0.4-0.8,0.7-1.5,1.2-2.3
				c-0.4-1.4-0.8-3.1-1.3-5c-0.3-0.1-1-0.5-1.8-0.9c0.8-0.3,1.4-0.5,2.1-0.7c0-0.8,0-1.5,0-2.3c-0.6-0.3-1.2-0.5-1.9-0.8
				c0-4.5,0-8.9,0-13.4c-2.5-3.9,0.6-8.8-2.2-12.5c0.5-0.6,0.9-0.9,1-1.1c-1.6-6-0.5-11.9-0.9-17.8c0-0.5-0.6-1.1-1-1.6
				c0.3-1,1-2.1,0.9-3.1c-0.3-3.4,1.1-6.9-0.9-10.1c-0.1-0.1,0-0.3,0-0.5c-0.3-1.6,2-2.8,0.5-4.9c-1-1.4-0.4-3.8-0.5-5.8
				c0-1.8-0.1-3.7,0-5.5c0.1-1.4,0.6-2.7,0.9-4.1c-0.6-0.2-1.2-0.4-2.1-0.8c0.5-0.6,0.8-1.1,1.2-1.5c0.8,0,1.7,0,2.5,0
				c0.7,1.5,1.5,3,1.6,4.9c0.1,4.9,0.6,9.7,1,14.6c0.1,0.9,0.5,1.8,1,2.6c1.5,2.8,1.4,5.5-0.4,8.9c0.5,0.3,1.2,0.7,1.9,1.1
				c0.2,0.2,0.5,0.5,0.5,0.8c-0.6,3.2,3,5.4,1.9,8.7c0.5,0.2,1,0.4,1.8,0.7c-0.2,1.9,2.4,3.7,0.5,6.5c0.6,0.3,1.5,0.6,2.5,1
				c-2,3,2.1,5.3-0.7,7.8c0.6,0.2,1.2,0.4,2.2,0.8c-0.3,0.8-0.6,1.5-0.9,2.3c0.5,0.2,1.1,0.4,2,0.8c-0.3,0.7-0.7,1.4-1,2.1
				c1.8,1.9,2,4.4,1.8,7c0.6,0.2,1.2,0.4,1.9,0.7c0.1,0.7,0.2,1.5,0.2,1.7c1.1,1.2,1.8,2.1,2.7,3c0.5,0,1.2,0,1.8,0
				c1,1.6,1.9,3.2,3,5c0.9,0,2,0,3.3,0c0.1,0.6,0.2,1.1,0.3,1.6c1,0.3,2.3,0.4,2.9,1.1c2.4,2.5,5.7,2.5,8.7,3.2
				c3.4,0.8,7.2-0.7,10.5,1.1c1.4-1.6,2.7,0.4,4.2,0.1c1.6-0.4,3.3-0.1,5-0.1c2.7,0,5.5,0.4,8-1.4c0.9-0.9,1-2.7,3.2-2.7
				c1.2,0,2.5-0.4,3.5-1c1.5-0.8,3.2-1.7,4.1-3c2.1-2.8,4.5-5.5,4.8-9.4c0.2-2.5,1.9-4.8,2.4-7.5c0.3-2.1,1-4.3,1.5-6.4
				c0.1-0.4,0.6-0.8,1-1.3c-0.3-2.6,0.2-5.2,2.2-7.4c-0.5-0.7-0.9-1.2-1-1.4c0.5-3.4,1-6.4,1.5-10.2c-0.1-0.2-0.8-1.1-0.7-1.9
				c0.4-2.3,1.1-4.5,1.6-6.8c0.2-0.8,0.2-1.6,0.3-2.4c0.2-1.7-0.2-3.4,0.8-5.2c0.6-1,0.9-3.2-0.6-4.6c-0.6-0.6-0.5-1.6,0.8-1.7
				c0.7,0,1.3,0,2,0c0,2.6-0.1,5.3,0,7.9c0,1,0.5,2,1,3.5c-0.2,0.2-0.9,0.6-0.9,1.1c-0.2,1.9,0.2,3.8-1,5.5c-0.2,0.3-0.1,1,0,1.5
				c0.3,1.5,1.3,3.3,0.8,4.5c-0.8,1.7-0.8,3.4-0.8,5.1c0,1.6,0,3.3,0,4.9c-0.3,0.4-0.9,0.8-1,1.2c-0.2,0.9,0,1.9,0,2.8
				c-0.2,0.7-0.5,1.4-0.7,2.2c-0.2,0.6-0.2,1.2-0.3,1.8C993,460.3,993,460.7,993,461z"/>
			<path class="st2" d="M182,190c-0.4-1.1-0.9-2.3-1.4-3.6c-2.7-2.1-5.5-4.3-8.8-6.8c-0.4,0.8-0.7,1.4-0.9,1.8
				c-3.9,1.3-7.7,2.6-10.6,3.5c-2,2-3.4,3.4-5.3,5.3c0,0.8,0.1,2.5,0,4.1c-0.1,1.4,0.1,2.7-0.7,4.2c-0.8,1.5-1.1,3.8,0.8,5.1
				c-0.4,1.3-1,2.4-1,3.4c-0.1,5,0.1,10-0.1,15c-0.1,3.1,0.7,6.2-0.6,9.2c-1.2,2.9,0.6,6.2-1.1,9c1.9,2.6-0.4,5-0.3,7.6
				c0.2,5.8-0.1,11.6-1.9,17.2c-0.2,0.5,0.1,1.2,0.3,1.9c0,0.1,0.2,0.2,0.3,0.4c1.5,1.7-0.9,2.9-0.7,4.4c0.1,1.5,1.4,2.5,0.7,4.4
				c-0.9,2.5-0.6,5.5-0.6,8.2c0,0.9,0.5,1.8,0.7,2.5c-0.5,2.9-1,5.6-1.6,8.6c0.2,0.7,0.7,1.8,0.8,2.8c0.1,1.5,0.5,3.2-0.8,4.5
				c1.8,1.5,0.3,2.8,0,4.2c-0.4,1.8,0,3.6-0.1,5.5c-0.3,6-0.6,12-1,18.1c-0.1,1.7-0.8,3.3-1.1,4.3c-1.7,3.7-3.2,6.7-4.9,10.2
				c0,1.2,0,2.8,0,4.5c-0.7,0.7-1.3,1.4-2,2.1c0.3,0.4,0.7,0.8,1.2,1.3c-2.2,1.9-3.4,4.9-7.2,5.3c0,1.3,0,2.5,0,4.5
				c-1.6-1-2.6-1.7-3.6-2.4c-1.1,0.7-2.4,1.6-4.5,2.9c-1.6,0.6-4.4-1.2-6.5,0.8c-1.6-0.4-3.2-0.8-5.3-1.3c-0.2-0.2-0.8-1-1.4-1.8
				c-0.6,0.5-0.9,0.8-1.3,1.2c-3.2-1.2-3.8-1.6-6.8-4.9c-0.4-0.5-1-0.9-1.5-1.1c-3.1-1-4.9-3.5-7.3-5.7c0.3-0.6,0.6-1.1,1.1-2
				c-0.4-0.1-0.8-0.3-1.7-0.6c-0.7-3.6-4.6-6.8-2.4-11.5c-0.4-0.1-1-0.4-1.9-0.7c0.3-0.7,0.5-1.4,0.9-2.3c-0.6-0.3-1.5-0.7-2.4-1.1
				c2.2-3.2,1.5-6,1.7-8.8c0.6-0.2,1.1-0.4,1.3-0.5c-0.8-0.8-1.8-1.8-2.8-2.8c0.2-0.2,0.5-0.4,0.7-0.5c-0.3-1.6-0.2-3.4-1-4.6
				c-1-1.4,1.4-2.3-0.1-3.7c-1-1,0.3-3,0.8-4.5c0.4-1.3,0.6-2.7,0.8-4c-0.7-1.3-1.5-2.7-2.3-4.2c1.1-0.4,1.6-0.5,2.2-0.8
				c0.1-0.3,0.3-0.6,0.3-0.9c-0.1-1-0.1-1.9-0.4-2.8c-1.1-3.6-0.7-7.5,1.4-11.1c0.7,0.5,1.5,1.1,2.2,1.6c-0.6,1.1-1,1.9-1.4,2.9
				c0.8,0.3,1.4,0.5,2.2,0.7c-0.5,1-1,2.1-1.6,3.3c0.2,0.3,0.5,0.7,0.8,1.4c-0.3,0.6-0.7,1.3-1.1,1.9c1,2.8,2,5.5,3,8.4
				c-0.7,0.9-1.5,1.9-2.5,3.1c0.9,0.4,1.4,0.6,2.1,0.8c0.3,0.9,0.6,1.9,1,2.9c0.9,2.1,2.7,4.2,0.4,6.5c0.5,2.5,0.9,4.9,1.5,7.4
				c0.4,1.8,0.9,3.6,1.5,5.4c1.1,2.9,3,5.4,3.4,8.6c2,0.1,2,3,4.3,2.8c1.9-1.5,4.5-0.5,6.9-0.7c2.3-0.2,4.6,0,6.5,0
				c2.8-1.9,5.3-3.6,7.8-5.3c0.1-1.2,0.1-2.3,0.2-3.5c0.6-0.1,1-0.2,1.8-0.4c0-5.4,3.7-10.7,1.2-16.9c1.1-2.5,2.4-5.4,1.9-8.7
				c-0.3-1.6,1.1-2.8,0.4-4.3c-0.6-1.6-0.4-2.9,0.5-4.5c0.7-1.3-0.3-3.4,0.2-4.9c2-6.3,1.2-13.2,3.8-19.4c0.4-1.1-0.4-2.7-0.7-4.6
				c0.1-0.3,0.7-1.2,0.8-2c0.2-1.6-0.6-3.8,0.2-4.9c1.4-1.8-0.5-2.8-0.3-4.3c0.7-5.7,1.3-11.4,2.3-17c1.6-0.9-0.2-1.5-0.3-2.3
				c-0.3-3.1,0.8-6,1.5-8.9c0.9-3.7,0.9-7.4,0.1-11c-0.4-1.8-0.6-3.3,0-5.1c1-2.8,0.8-4.1-0.5-6.9c0.3-0.6,0.9-1.3,1-2
				c0.3-4.6,1.6-8.9,2.9-13.3c0.8-2.7,3.5-3.7,4.1-6.3c0.3-1,0.9-1.9,1.6-3.4c0.5-0.3,1.6-0.8,3.1-1.5c0.5-1,1.2-2.3,1.9-3.9
				c0.6,0.3,1.2,0.6,2.1,1c1.3-2,3.6-2.8,5.9-3.6c0.4,0.3,0.9,0.6,1.6,1.2c0.6-1,1-1.7,1.4-2.5c2.4,2,4.8,3.9,7.4,6.1
				c0.1,0,0.7,0,1.7,0c0.1,0.7,0.1,1.5,0.2,2.3c3.1,2.4,4.9,5.6,5.9,9.4C183,189.1,182.3,189.6,182,190z"/>
			<path class="st4" d="M244,168c0,74.6,0,149.2,0,223.8c0,4-0.2,8.1-1.1,12c-0.9,3.7-2.4,7.3-4,10.8c-1.5,3.2-2.7,6.6-4.9,9.5
				c-3.8,4.9-7.5,9.8-13.6,12.1c-2.8,1.1-5.7,2-8.7,1.8c-0.5,0-1-0.1-1.4-0.3c-4.7-2.2-9.5-4.4-14.2-6.7c-3.6-1.8-5.9-5.2-6.9-8.8
				c-1.3-4.5-2.4-9.1-3-13.7c-0.5-4.1-0.1-8.3-0.1-12.5c0.5,0,1,0,1.8,0c0.5,2,1,4.2,1.7,7c0.1,0.1,1.5,1,1.4,1.5
				c-0.6,2.7,3.5,3.9,1.9,6.7c1.4,1.2,2.6,2.3,4.3,3.7c2.4-0.4,4.7,1.1,6.8,3.5c4.6-4.3,10.6-4,14.6-6.2c2-2,3.4-3.4,5.4-5.5
				c0,0.2,0-0.6,0.1-1.4c5.7-3.1,9.4-7.6,9.9-14.3c0.2-2,0.9-3.3,3-5.8c-0.1-0.1-0.2-0.3-0.4-0.3c-0.8-0.1-1.6-0.2-2.8-0.4
				c0.6-1.4,1-2.6,1.5-3.7c0.7-0.1,1.1-0.2,1.8-0.4c-0.4-1.1-1-2.1-1.1-3.1c-0.1-1,0.3-2.1,0.6-3.6c-0.4-1-1-2.6-1.8-4.6
				c0.7-0.4,1.6-0.9,1.9-1.1c0.6-4.3-0.4-8.1,0.8-12.1c-0.1,0-0.7-0.2-1.4-0.4c-0.6-2.8,1.5-4.4,2.8-6.6c-0.5-0.1-1-0.2-1.8-0.4
				c0.1-1.7-0.9-3.6,0.8-5.3c-1.6-1.5-1.5-3.9-0.8-4.9c1.4-2,0.2-3.7,0.3-5.6c-0.3,0.6-0.6,1.3-1.2,2.5c-0.2-1.3-0.3-2-0.4-3.1
				c0.7-0.5,1.5-1.1,2.2-1.6c-0.5-3.2,0.5-6.1-1-9c-0.5-1-0.7-2.8,0.5-4.2c1.1-1.2,0.2-2.4-0.8-3.6c0.6-1.2,1.2-2.4,1.9-3.7
				c-1.1-1.4-1.2-2.9-0.2-4.7c0.8-1.5,0.8-3.1-0.6-4.4c0.3-1.2,1.2-2.6,0.9-3.6c-1.5-4.5,0.9-8.8,0.2-13.2c-0.2-1.1,0.9-2.4,0.9-3.6
				c-0.2-2.3-0.5-4.8-1.4-6.9c-0.8-1.9-0.8-3.4,0.5-4.9c-0.6-1.7-1.3-3.5-2-5.5c2.6-2.5-0.5-6.5,2-9.5c-0.4-1.8-2.3-3.6-0.2-5.7
				c-0.6-0.8-1.6-1.6-1.8-2.5c-0.2-0.9,0.5-2.1,0.9-3.4c-1.7-1.4-1.1-3.1,0.2-4.8c-0.4-0.6-0.8-1.2-1.3-1.9c0.3-0.6,0.7-1.2,1.2-2.1
				c-1.1-1.6-1.9-3.3,0.1-4.8c-0.8-1.6-1.5-2.9-2.3-4.4c0.8-0.8,1.5-1.7,2.3-2.5c-0.8-1.5-1.5-2.9-2.3-4.4c0.7-0.8,1.4-1.7,2.3-2.6
				c-0.8-2.8-1.6-5.5-0.3-8.6c1-2.3,0-5.5-0.9-7.6c1.7-1.9,0.9-4.3,1.1-6.5c2.2-3.6,2.1-4.1,2.1-8.3c0-2,0.5-4.1,1.3-5.9
				c1.1-2.6,0.9-4.9-0.4-7.3C242,169.9,243,169,244,168z"/>
			<path class="st2" d="M864,372c-0.3,2.1,0.3,4.1-0.6,6.3c-0.8,2-0.5,4.4-0.8,6.6c-0.3,2-0.8,3.9-1.2,5.8c0.2,0.4,0.5,1,1,1.7
				c-1,0.6-1.8,1.2-2.6,1.7c2.8,5.6,0.4,10.6-0.3,15.8c0.2,0.3,0.5,0.8,0.9,1.5c-0.9,0.7-1.7,1.3-2.3,1.7c0,2.9,0.2,5.4,0,7.8
				c-0.2,2.2-0.8,4.3-1.2,6.5c-0.8,0.8-1.6,2.1-2.7,2.5c-2.1,0.7-0.2,3.3-2.3,3.8c-1.3,0.4-0.3,3.4-2.8,2.3c0,1.1,0,1.7,0,2.5
				c-0.5,0.2-1.2,0.3-1.7,0.6c-2,1.3-4.8,0.6-6.3,2.8c-2-0.2-3.5,1.5-5.6,1.1c-1.6-0.3-3.3-0.2-5,0c-4.1,0.5-8-1.1-11.7-1.1
				c-1.2-1.5-2.3-2.8-3.3-4c-1.5,0.5-2.7,1-3.7,1.3c-2.4-3-4.6-5.7-6.6-8.5c-1.8-2.7-3.1-5.8-4.8-8.4c-1.9-2.7-2-6.4-5.2-9.3
				c0-0.5,0-1.9,0-3.5c0.5-0.2,1.1-0.5,2-0.9c-0.8-0.3-1.4-0.5-2.1-0.7c0-1.4,0-2.8,0-4.1c-0.8-0.8-1.3-1.4-2.1-2.1
				c0.2-2.9-0.3-5.8-1.5-8.6c-0.8-1.9-0.5-4.2-0.7-6.3c-1.7-0.2-2.7-2.2-2.7-3.1c0.3-3.8-1.5-7.1-2.4-11.2c-0.7-0.5-1.9-1.4-2.7-2.1
				c0-1.6,0-2.6,0-3.7c-0.4-0.1-0.8-0.3-1.6-0.6c-1.5-3.4-3-7-4.6-10.7c-0.8-0.1-1.6-0.2-2.5-0.3c-0.4-2-1.4-3.3-3.6-2.8
				c-1.5-2.2-2.6-4.6-5.8-5.2c-1.5-0.3-3.7-1.3-4.7-2.6c-1.2-1.5-2.9-1.6-4-2.7c-1.4-1.4-2.9-2-5.2-1.2c0-1.1,0-1.7,0-2.3
				c0.2-0.4,0.4-0.7,0.8-1.5c1,0.9,1.8,1.6,2.8,2.4c1.5,0,3.2,0,5,0c0.9,1.1,1.9,2.4,2.9,3.6c1.2-0.2,2.6-0.5,4.1-0.7
				c0.6,1,1,1.6,1.3,2.3c0.2,0.5,0.2,1.2,0.2,1.9c0.9-0.5,1.5-0.9,2.9-1.6c-0.4,1.5-0.6,2.3-0.8,3.4c1.3,0.1,2.8,0.2,4.3,0.3
				c1,1.6,2,3.2,3,4.9c0.6,0,1.2,0,1.8,0c1.5,1.5,1.3,4,3.7,5.2c1.7,0.8,2.6,3,3.7,4.3c0.6,2,1.1,3.8,1.6,5.6
				c0.4-0.4,0.6-0.6,1.1-1.1c2,3.8,4,7.4,6,11.1c0.7,0,1.4,0,2.2,0c0.5,4.2,2.8,7.5,5.2,10.8c2.4,3.2,2.4,7.9,5.9,10.5
				c0.1,0.8,0.2,1.6,0.3,2.6c0.8,0,1.6,0.1,2.4,0.2c0.5,1.6,1.1,3.2,1.7,5c0.5-0.4,0.8-0.6,1.3-1c1.2,0.4,2.5,0.8,4.3,1.3
				c0.9,0.9,2.1,2.2,3.3,3.5c0.8-0.4,1.4-0.7,2.5-1.2c0.2,1.1,0.3,2,0.5,3c1.5,0.7,3,1.5,4.5,2.2c1.3-1.6,3.3-0.4,4.1-0.6
				c1.7-0.9,2.5-1.2,3.3-1.7c2-1.3,4.2-2.2,5.6-4.5c1.3-2.1,3.7-3.2,5.3-5c0.3-0.3,1-0.4,1.1-0.7c0.3-3.4,2.9-5.5,4.4-8.1
				c1.5-2.6,2.5-5.4,3-8.2c0.9-4.5,4.5-7.8,4.8-12.5C861.3,372.5,862.6,371.6,864,372z"/>
			<path class="st2" d="M1308,453c0.1,6.6,0.2,13.2,0.4,19.8c0,0.3,0.4,0.5,0.8,0.9c-0.4,0.8-1,1.6-1.1,2.4c-0.4,5.5-0.7,11-1,16.6
				c-0.1,1.4-0.4,2.7-0.9,4.1c-1.2,3.7-1.7,7.7-2.6,12.1c-0.1,0.1-0.8,0.6-1.2,1.1c-0.6,2.7-1.1,5.1-1.5,7.5c-0.9,0.7-2.1,1.1-2.6,2
				c-2.7,4.6-2.7,4.7-6.3,7.2c-1.4,1-2.9,2-4.9,3.3c-0.4,0-1.8-0.3-2.6,0.3c-1.9,1.4-3.8,0.4-5.7,0.8c-1.7-2.1-3.4-0.3-5.3,0.2
				c-0.2-0.7-0.4-1.3-0.7-2c-0.6,0.3-1.2,0.7-1.9,0.8c-0.6,0.1-1.3,0-2.2,0c-2-1.5-4.2-3.2-6-4.7c-1.1-0.4-2-0.7-2.8-1.1
				c-1.7-0.9-1.6-3.4-3.8-3.8c0.1-3.1-2.1-5.5-2.1-8.7c-0.1-3.4-0.8-6.9-1.7-10.2c-0.8-2.7-1.3-5.7-1.1-8.5
				c0.4-7.4-1.2-14.7-1.1-22.1c0.5,0,1,0,1.7,0c0.5,2.1,1,4.2,1.7,7c0.2,0.2,1,0.8,1.7,1.4c-1,7.1,2.3,13.1,4.2,19.4
				c1.9,0.6,4.4,0.4,5.1,3.3c1.4,0,2.8,0,4.1,0c0.8,0.8,1.3,1.4,2,2c0.3-0.3,0.7-0.6,1.1-1c5.7,2.3,11.3,0.6,17.2-0.2
				c2.7-2.6,5.3-5.6,7.2-9.2c0.1-0.3-0.1-0.7,0.1-0.9c1-1.4,2.3-2.7,2.9-4.3c0.5-1.5,0.1-3.3,0.1-5c0.6-0.2,1.2-0.4,1.8-0.6
				c0.1-0.1,0.2-0.3,0.2-0.4c0-1.5,0-3,0-3.5c1.1-3.4,2-5.9,2.8-8.5c-0.2-0.2-0.5-0.5-1-1.1c1.3-2.4,2.4-4.9,2.3-8
				c-0.1-2.6,0.8-5.3,1.3-8.4C1306.8,453,1307.4,453,1308,453z"/>
			<path class="st2" d="M80,259c-1,0.9-1.9,2.1-3.1,2.5c-2.6,1-3.8,3.1-4.9,5.4c-0.4,0.9-1.1,1.6-1.9,2.8c1.1,4.3-2.2,8.2-3.2,12.6
				c-0.2,0.7-1.7,1.2-2.3,2.4c-0.5,1.1-1.7,1.7-1.7,3.3c0,2-2.5,1.7-3.5,2.8c-0.4,0.5-1.6,0.1-2.2,0.5c-0.6,0.4-1,1.3-1.5,2
				c-1.1-0.6-1.8-1-2.6-1.6c-3.4,3.5-8.1,3.5-12.6,4.1c-1.5,0.2-3.1,0.5-5,0.7c-0.1-0.1-0.6-0.4-1.3-0.8c-0.6,0.3-1.3,0.7-2.3,1.3
				c-0.7-0.8-1.5-1.7-2.6-3c-1-0.6-3.4-1.3-4-2.7c-0.7-1.9-2.5-2.5-3.1-4.2c-1.1-3.1-1.4-6.3-3-9.3c-1.6-2.9-2.2-6.2-2.2-9.7
				c-0.4-0.1-0.9-0.2-1.4-0.4c-1.5-3.7-1.8-7.6-1.6-11.4c-0.8-0.8-1.4-1.4-2-2c1.6-1.2,0.7-3,0.9-4.6c2.4,0.7,3.9,2.4,5,4.5
				c1.2,2.2,2.4,4.3,3.5,6.5c0.3,0,0.6,0,1.3,0c0,0.9,0,1.9,0.2,2.8c0.2,0.9,0.7,1.7,1.2,2.7c1.5,0.9,3.5,1.7,3.9,4.2
				c2.8,0.3,4,3.1,6.5,4.2c0.2-0.6,0.4-1.1,0.6-1.7c0.8,0.3,1.6,0.6,2.3,0.9c3.4-2.1,7-3.3,10.8-3.1c0.4-2.1,2.5-3,3.9-3.6
				c1.9-0.9,1.9-2.7,3.3-3.7c1.3-1,2.3-2.5,3.3-4c0.9-1.4,1.6-3,2.4-4.6c0.8-0.1,1.5-0.2,2.5-0.3c0.1-0.4,0.2-0.9,0.3-1.7
				c2.3-0.5,4.7-1,7.2-1.5c0.8,0.9,1.4,1.7,2,2.5c0.5-0.5,0.9-0.8,1.4-1.3c1.6,0.8,3.3,1.6,5.3,2.6C80,256.4,80,257.7,80,259z"/>
			<path class="st5" d="M332,364c-2.5-1.3-0.5-2.6,0-3.9c-1.5-3-1.5-6.1-0.4-9.3c0.3-0.9,0.7-2.1,0.3-2.8c-2-3.8-0.3-7.8-1-11.3
				c0.5-0.7,0.9-1.2,1.3-1.7c-0.5-0.7-0.9-1.2-1.2-1.7c1-2.7,1.7-5.3,1.1-8.2c-0.7-3,0.9-6.2-1-9c0.3-1.1,0.7-2.1,1-3.1
				c1,0.3,2,0.7,2.8,0.9c0.7,3-0.8,5.8,1.2,7.7c0,0.5,0.1,0.8,0,0.8c-2,1.2,0,3.9-1.9,5.1c0.2,0.2,0.6,0.4,0.7,0.7
				c0.3,1.5,0.6,3,1,5c-0.2,0.6-0.7,1.8-0.7,3c-0.1,4.3,0,8.7-0.1,13c0,1.2-0.5,2.4-0.8,3.9c0.2,0.8,0.6,1.8,0.8,2.8
				c0.2,1.1-0.2,2.1,0.7,3.3c0.6,0.8,0.3,2.2,0.4,3.1c-0.6,0.6-1.1,1.1-1.6,1.6C333.7,364,332.8,364,332,364z"/>
			<path class="st6" d="M331,443c0-1.3,0.4-2.7-0.9-3.5c0.3-1.4,0.8-2.8,0.9-4.2c0.1-3-0.1-6,0.1-9c0.1-1.9-0.8-4,0.8-5.7
				c-1.3-1.7-0.7-3.6-0.8-5.5c-0.1-2.2,0-4.3,0-6.5c0-2,0-4,0-6s0-4,0-6s0-4,0-6.3c0.6-0.5,1.4-1,2.2-1.6c-0.9-0.9-1.6-1.6-2.2-2.3
				c-0.1-1.7,0.2-3,2-3.5c1.2,0.4,1.9,1,2,2.4c0.1,1.2-1.2,2.2-0.2,3.8c0.8,1.2,0.1,3.2,0.1,4.9c0,1.5,0,3,0,4.5s0.4,3.1-0.1,4.5
				c-1.5,4.6-0.7,9.4-1,14.1c0,0.7-0.6,1.5-0.7,2.2c-0.2,1.1-0.6,2.6-0.1,3.3c1.3,1.5,1.2,3.3,0.7,4.6c-1.6,5.1-0.5,10.4-1,15.9
				C332.2,443,331.6,443,331,443z"/>
			<path class="st5" d="M333,294c-1.8-0.7-1-1.6,0-2.5c-0.5-0.2-0.8-0.3-1.2-0.5c-0.3-0.1-0.5-0.3-1-0.5c0.6-1.7,1.3-3.4,2-5.5
				c-0.5-0.4-1.3-1-2.4-1.7c0.8-1.7,1.5-3.3,2.2-4.9c-0.1-0.1-0.6-0.5-0.7-0.8c-0.4-1.6,2.3-2.9,0.3-4.8c-0.9-0.9-0.1-2.6-0.2-4
				c-0.4-5.1-0.2-10.3-0.1-15.4c0-0.7,0.6-1.4,0.9-2.2c-0.3-0.9-0.9-1.9-0.9-3c-0.1-6.3-0.1-12.6,0-18.9c0-0.4,0.6-0.9,1-1.3
				c0.3,0.4,0.9,0.8,1,1.3c0.3,1.4-0.5,2.9,0.9,4.2c0.4,0.4,0.3,1.7-0.1,2.2c-1.5,2.1-0.9,4.6-0.6,6.7c0.9,5.9,1,5.9,0,11.1
				c-0.3,1.6-0.3,3.3,0,4.9c0.9,4.7,1,4.7,0,9.1c-0.1,0.5-0.2,1.3,0,1.5c2.2,1.8-0.6,4.4,1,6.3c-1.7,6-0.6,12.3-1.2,18.4
				C333.8,293.8,333.3,293.9,333,294z"/>
			<path class="st6" d="M257,127c-0.5,0.4-1.1,0.9-1.6,1.4c-0.9,2.3-1.8,4.7-2.6,6.9c-1.3,1.3-2.6,2.6-3.8,3.8c-0.6,0-1.2,0-2.5,0
				c1.6-3.1,3.4-5.5,4-8.2c0.7-2.8,2.9-4.1,4.5-5.9c2-2.1,1.6-6,5.5-7c0.1,0.7,0.3,1.4,0.4,2.1c0,1.2,0,2.5,0,3.9
				c-1.4,0.7-2.7,1.4-4,2.1c-0.3,0.1-0.5,0.2-0.8,0.3C256.5,126.6,256.7,126.8,257,127z"/>
			<path class="st2" d="M334,534c-0.9,1.3-1.8,2.6-2.8,4c-0.3,0-0.7,0-1.2,0c0-5.7,0-11.3,0-17c0.7,0.4,1.3,0.9,1.6,1.1
				C332.4,526.3,333.2,530.2,334,534z"/>
			<path class="st2" d="M1230,469c-0.9,0-1.8,0-3,0c0-0.8,0-1.4,0-2c-0.1-1.7,0.4-3.6-1.1-4.9c0.9-2.2,2.4-3.9,2.2-6.3
				c0-0.6,1.2-1.2,1.9-1.8c0.4,1,0.8,2,1.3,3.1c-0.8,0.9-1.5,1.7-2.3,2.5c0.8,0.3,1.3,0.5,1.9,0.7c0.1,0.4,0.2,0.9,0.1,1
				c-0.4,0.4-1,0.6-1.7,1C1230.5,464.3,1229.8,466.7,1230,469z"/>
			<path class="st5" d="M333,225c-0.3-0.4-1-0.9-1-1.3c0.3-3.6-0.8-7.3,0.9-10.9c0.6-1.4,0.1-3.2,0.1-4.9c0.5,0,1,0,1.9,0
				c-0.2,3.5,0.8,6.9-0.6,10.4c-0.6,1.6-0.1,3.6-0.3,5.3C333.9,224.2,333.3,224.6,333,225z"/>
			<path class="st6" d="M332,378c-1.9-0.3-1.2-2.1-0.9-2.7c1.2-2.6,1.3-5,0-7.6c0-0.1,0.6-0.5,1-0.7c1,0.3,2,0.6,2.9,0.9
				c0,2.7,0,5,0,7.7C334.1,376.3,333.1,377.1,332,378z"/>
			<path class="st2" d="M485,532c0.6,0.9,1.3,1.8,1.8,2.5c0,1.1,0,2.2,0,3.8c-0.9-0.5-1.5-0.8-2.2-1.1c-0.1,0-0.4,0.5-0.7,0.8
				c-0.5,0-1,0-1.5,0c-0.4-0.8-0.8-1.6-1.1-2.1c0.3-2,0.5-3.8,0.9-6.3c0.4,1.1,0.6,1.6,1,2.4C483.8,532,484.4,532,485,532z"/>
			<path class="st5" d="M333,205c-0.3-0.4-1-0.9-1-1.3c-0.1-3.5,0-6.9,0-10.7c0.8,0,1.4,0,2,0c-0.1,1.3,0.4,2.6-1,3.5
				c2.2,3.6,2.2,3.6,1.1,6.1c0.3,0.4,0.6,0.8,0.8,1.2c0.1,0.2-0.1,0.6-0.2,1.2C334.2,205,333.6,205,333,205z"/>
			<path class="st6" d="M249,142c-0.1,0.6,0,1.5-0.4,1.8c-1.4,1.1-1.6,2.6-1.8,4.1c-0.7,0.1-1.1,0.2-1.6,0.3c0.3,0.8,0.6,1.6,1,2.8
				c-1,0-1.6,0-2.2,0c0.1-2.9-0.6-6,1.4-9C246.5,142,247.7,142,249,142z"/>
			<path class="st2" d="M996,418c-0.7,0-1.3,0-2,0c0-2.1,0-4.3,0-6.4c0.7-1.2,2.5-1.8,2-3.6c0.2,0,0.5,0,0.5,0c0.9,3.3,0.9,6.7,0,10
				C996.5,418,996.2,418,996,418z"/>
			<path class="st5" d="M332,311c0-1.9-0.1-3.9,0-5.8c0-0.4,0.6-0.8,1-1.2c0.6,0.4,1.3,0.9,1.9,1.3c0,1.9,0,3.6,0,5.7
				C333.9,311,332.9,311,332,311z"/>
			<path class="st5" d="M315,120c-0.2,0-0.3,0-0.5,0c-1.6,0.2-2-1.3-3-1.9c-0.8-0.5-2.3,0.8-2.6-1.1c-0.2-1.7,0.7-2.6,2.2-3
				c1.1,1.3,2.2,2.6,3.1,3.9C314.7,118.5,314.8,119.3,315,120z"/>
			<path class="st5" d="M334,184c-1.4-1.9-1.4-4.1,0-6c0.5,0,1,0,1.8,0c0.1,0.9,0.2,1.7,0.2,2.6c-0.7,0.3-1.3,0.5-2.3,0.9
				c0.9,0.4,1.5,0.6,2.1,0.9c0,0.4,0,0.9,0,1.6C335.2,184,334.6,184,334,184z"/>
			<path class="st5" d="M334,176c-0.7-0.5-1.4-1-2.2-1.6c0.5-0.9,0.9-1.6,1.2-2.4c0.5,0,1,0,1.8,0C334.9,173.4,335.8,174.9,334,176z
				"/>
			<path class="st2" d="M721,333c0-0.3,0-0.7,0-1c1.6-1.2,1.8-1.4,4.2-2c-0.5,1.2-0.8,2.1-1.2,3C723,333,722,333,721,333z"/>
			<path class="st2" d="M183,195c-1.6-0.5-1.3-2.2-1.9-3.3c0,0,0.6-0.5,0.9-0.7C184.6,192.9,184.6,193.2,183,195z"/>
			<path class="st2" d="M330,519c0-2,0-4,0-6c0.6,0,1.2,0,2.9,0C330.4,515,331.9,517.5,330,519z"/>
			<path class="st5" d="M334,189c-0.5,0-1,0-1.8,0c-0.1-0.9-0.1-1.8-0.3-3c0.8,0,1.5,0,2.1,0c1.4,0.2,1.2,1,0.6,1.9
				C334.4,188.2,334.2,188.6,334,189z"/>
			<path class="st6" d="M333,382c-0.6,0-1.2,0-2.6,0c0.8-1,1.2-1.5,1.6-2C333.5,380.1,332.9,381.2,333,382z"/>
			<path class="st5" d="M1312,377c0.5,0,1,0,1.5,0c0.6,1.8,0.6,1.8-1.5,2C1312,378.3,1312,377.7,1312,377z"/>
			<path class="st2" d="M331,507c-0.3-0.4-0.7-0.8-1-1.2c0.3-0.3,0.7-0.5,1-0.8c0.3,0.4,0.7,0.8,1,1.2
				C331.7,506.5,331.3,506.8,331,507z"/>
			<path class="st2" d="M330,511c0.1-0.8-0.5-1.9,1-2c0.4,0.5,0.8,1,1.6,2C331.2,511,330.6,511,330,511z"/>
			<path class="st2" d="M718,330c-0.3,0.3-0.5,0.8-0.8,1c-0.2,0.1-0.6-0.1-1.2-0.2c0-0.5,0-1.2,0-1.8
				C716.8,329.1,717.9,328.5,718,330z"/>
			<path class="st2" d="M1140,591c4.9,0.1,11.2,2,16.6,5c1.3,0,3,0,4.6,0c0.3,0,0.5,0.6,0.8,1c0,0.5,0,1,0,1.8c-2.2,0-4.4,0-6.8,0
				c-0.1-0.4-0.2-0.8-0.3-1.4c-1,0.3-2.2,0.5-3.3,0.8c-0.4-0.8-0.7-1.5-1.1-2.3c-0.3,0.8-0.7,1.4-1.1,2.3c-0.3-0.8-0.5-1.4-0.6-1.8
				c-1.4-0.4-2.8-1-4.1-1.2c-1.4-0.3-2.9-0.2-4.7-0.4C1140,593.6,1140,592.3,1140,591z"/>
			<path class="st2" d="M1044,432c0.5-0.6,1-1.3,1.5-1.9c0.6,0.8,1.3,1.6,2,2.4c0.6,0.5,0.6,0.5-1.5,3.4
				C1043.8,435.4,1043.9,433.7,1044,432z"/>
			<path class="st2" d="M1128,585c1.1-0.3,2.3-0.7,3.7-1.1c0.4,1.3,0.9,2.7,1.3,4.1c-0.2,0.4-0.4,0.7-0.6,1.1c-2-1.3-2-1.3-3-3.1
				c-0.5,0-0.9,0-1.4,0C1128,585.7,1128,585.3,1128,585z"/>
			<path class="st2" d="M993,473c-0.3-0.3-0.7-0.5-1-0.8c1.6-1.7,0.7-4,1.2-5.9c0-0.2,0.5-0.2,0.8-0.4c0.3,0.1,0.8,0.2,0.8,0.4
				C995,467.6,994,471.3,993,473z"/>
			<path class="st2" d="M1047,437c0.8,0,1.7,0,2.8,0c0.1,0.9,0.2,1.8,0.3,3c-0.8,0-1.4,0-2.1,0C1046.1,439.5,1047.4,438,1047,437z"
				/>
			<path class="st2" d="M1125,580c0.3-0.4,0.6-0.8,1.4-1.8c0.7,2.3,1.2,4,1.6,5.8c-0.6,0-1.2,0-1.5,0
				C1125.9,582.4,1125.5,581.2,1125,580z"/>
			<path class="st2" d="M994,456c0-0.9-0.1-1.9,0-2.8c0.1-0.4,0.6-0.8,1-1.2c0.4,1.2,0.8,2.4,1.4,4C995.2,456,994.6,456,994,456z"/>
			<path class="st2" d="M931,528c0.9,0,1.8,0,3,0c0,0.8,0,1.4,0,2c-0.9,0-1.8,0-3,0C931,529.2,931,528.6,931,528z"/>
			<path class="st2" d="M993,461c0-0.3,0-0.7,0-1c0.3,0.2,0.5,0.5,0.8,0.7C993.5,460.8,993.3,460.9,993,461z"/>
			<path class="st2" d="M1128.1,586.1c-0.2,0.3-0.5,0.5-0.7,0.8c-0.1-0.1-0.2-0.2-0.3-0.3c0.3-0.2,0.5-0.5,0.8-0.7
				C1128,586,1128,586,1128.1,586.1z"/>
			<path class="st2" d="M330,540c0.8,0,1.6,0,2.8,0c0.1,0.9,0.4,1.9,0.1,2.7c-1.3,4.1-0.9,8.3-1,12.5c0,0.3-0.6,0.5-1,0.8
				c-1.3,0-1-1-1-1.8C330,549.5,330,544.8,330,540z"/>
			<path class="st0" d="M257,127c-0.3-0.2-0.5-0.4-0.8-0.7c0.3-0.1,0.5-0.2,0.8-0.3C257,126.3,257,126.7,257,127z"/>
			<ellipse class="st2" cx="422" cy="584.5" rx="1.2" ry="2"/>
			<path class="st2" d="M628,457.8c-0.6,0-1.3,0.1-1.9,0.2c0-0.2-0.1-0.4-0.1-0.6c0.7-0.1,1.3-0.3,2-0.4
				C628,457.2,628,457.5,628,457.8z"/>
			<path class="st0" d="M450.6,576.8c1.2,0.3,1.8,0.5,2.4,0.7c-0.5,0.2-0.9,0.4-1.4,0.4C451.5,578,451.3,577.6,450.6,576.8z"/>
			<path class="st0" d="M628.9,434.9c0.2-0.3,0.5-0.5,0.7-0.8c0.1,0.1,0.2,0.2,0.3,0.3c-0.3,0.2-0.5,0.5-0.8,0.7
				C629,435,629,435,628.9,434.9z"/>
			<path class="st2" d="M627.9,456.9c0.2-0.3,0.5-0.5,0.7-0.8c0.1,0.1,0.2,0.2,0.3,0.3c-0.3,0.2-0.5,0.5-0.8,0.7
				C628,457,628,457,627.9,456.9z"/>
			<ellipse class="st0" cx="625.5" cy="469.5" rx="0.2" ry="0.7"/>
			<path class="st0" d="M609.1,491.9c0.3,0.2,0.5,0.5,0.8,0.7c-0.1,0.1-0.2,0.2-0.3,0.3c-0.2-0.3-0.5-0.5-0.7-0.8
				C609,492,609,492,609.1,491.9z"/>
			<path class="st0" d="M453.1,577.9c0.3,0.2,0.5,0.5,0.8,0.7c-0.1,0.1-0.2,0.2-0.3,0.3c-0.2-0.3-0.5-0.5-0.7-0.8
				C453,578,453,578,453.1,577.9z"/>
		</g>
	</g>
</g>
</svg>
